<svg width="40" height="40" viewBox="0 0 40 40" fill="none" xmlns="http://www.w3.org/2000/svg">
    <path
        d="M20.0003 4.58334C18.5764 4.58395 17.1666 4.86591 15.852 5.41304C14.5374 5.96016 13.3438 6.76165 12.3399 7.77147C10.3066 9.81674 9.16579 12.5839 9.16699 15.4679C9.16699 18.9254 10.062 21.4406 13.5026 25.655C15.101 27.4721 16.5014 29.4541 17.6803 31.5675C18.9278 34.1086 18.7807 35.8333 20.0003 35.8333C21.2199 35.8333 21.0728 34.1086 22.3203 31.5675C23.4992 29.4541 24.8997 27.4721 26.498 25.655C29.9387 21.4406 30.8337 18.9252 30.8337 15.4679C30.8348 12.5839 29.694 9.81676 27.6607 7.77147C26.6568 6.76165 25.4633 5.96016 24.1487 5.41304C22.834 4.86591 21.4243 4.58395 20.0003 4.58334Z"
        stroke="#0074B7" stroke-width="3.75" />
    <path
        d="M19.9997 19.5833C22.3009 19.5833 24.1663 17.7179 24.1663 15.4167C24.1663 13.1155 22.3009 11.25 19.9997 11.25C17.6985 11.25 15.833 13.1155 15.833 15.4167C15.833 17.7179 17.6985 19.5833 19.9997 19.5833Z"
        stroke="#0074B7" stroke-width="3.75" />
</svg>
    