<svg width="17" height="22" viewBox="0 0 17 22" fill="none" xmlns="http://www.w3.org/2000/svg">
    <path
        d="M8.5 1C7.5142 1.00039 6.5382 1.18085 5.62808 1.531C4.71796 1.88116 3.89165 2.39412 3.19663 3.0404C1.78894 4.34937 0.99917 6.12036 1 7.96613C1 10.1789 1.61962 11.7887 4.00159 14.4859C5.10814 15.6488 6.07769 16.9173 6.89385 18.2699C7.7575 19.8961 7.65567 21 8.5 21C9.34433 21 9.2425 19.8961 10.1062 18.2699C10.9223 16.9173 11.8918 15.6488 12.9984 14.4859C15.3804 11.7887 16 10.1788 16 7.96613C16.0008 6.12037 15.211 4.34939 13.8034 3.0404C13.1083 2.39412 12.282 1.88116 11.3719 1.531C10.4618 1.18085 9.4858 1.00039 8.5 1Z"
        stroke="#228B22" stroke-width="2" />
    <path
        d="M8.50034 10.5999C10.0935 10.5999 11.385 9.40603 11.385 7.93327C11.385 6.46051 10.0935 5.2666 8.50034 5.2666C6.90721 5.2666 5.61572 6.46051 5.61572 7.93327C5.61572 9.40603 6.90721 10.5999 8.50034 10.5999Z"
        stroke="#228B22" stroke-width="2" />
</svg>
    