<svg version="1.1" id="Layer_1" xmlns="http://www.w3.org/2000/svg"
	xmlns:xlink="http://www.w3.org/1999/xlink" viewBox="0 0 512.002 512.002" xml:space="preserve"
	width="90px" height="90px" fill="#000000"><g id="SVGRepo_bgCarrier" stroke-width="0"></g><g id="SVGRepo_tracerCarrier" stroke-linecap="round" stroke-linejoin="round"></g><g id="SVGRepo_iconCarrier"> <path style="fill:#9ACAEB;" d="M348.27,103.338h-34.416V49.823c0-6.301-5.126-11.425-11.425-11.425H209.58 c-6.301,0-11.426,5.126-11.426,11.425v53.515h-34.416V49.823c0-25.277,20.565-45.842,45.842-45.842h92.849 c25.276,0,45.841,20.564,45.841,45.842L348.27,103.338L348.27,103.338z"></path> <path style="opacity:0.15;enable-background:new ;" d="M323.169,97.749V44.234c0-6.301-5.126-11.425-11.425-11.425h-102.17 c-6.301,0-11.426,5.126-11.426,11.425v53.515h-25.095V44.234c0-14.735,6.996-27.86,17.832-36.251 c-15.982,7.169-27.148,23.22-27.148,41.84v53.515h34.416V49.823c0-6.301,5.126-11.425,11.426-11.425h92.849 c6.299,0,11.425,5.126,11.425,11.425v53.515h34.416v-5.59H323.169z"></path> <path style="fill:#6DABE4;" d="M410.406,508.021H101.601c-26.116,0-47.286-21.171-47.286-47.286V121.622 c0-26.116,21.171-47.286,47.286-47.286h308.805c26.116,0,47.286,21.171,47.286,47.286v339.114 C457.692,486.85,436.521,508.021,410.406,508.021z"></path> <path style="fill:#333E48;" d="M54.315,259.852v200.883c0,26.116,21.171,47.286,47.286,47.286h308.805 c26.116,0,47.286-21.171,47.286-47.286V259.852H54.315z"></path> <path style="fill:#9ACAEB;" d="M363.011,459.757H148.996c-9.155,0-16.576-7.422-16.576-16.577V322.035 c0-9.155,7.422-16.577,16.576-16.577h214.014c9.155,0,16.577,7.422,16.577,16.577V443.18 C379.588,452.336,372.166,459.757,363.011,459.757z"></path> <path style="fill:#FFFFFF;" d="M281.113,390.805h-50.219c-4.331,0-7.842,3.511-7.842,7.842v19.262c0,4.331,3.511,7.841,7.841,7.841 h50.219c4.331,0,7.841-3.511,7.841-7.841v-19.262C288.955,394.317,285.444,390.805,281.113,390.805z"></path> <g> <rect x="54.315" y="168.158" style="fill:#333E48;" width="403.379" height="16.769"></rect> <path style="fill:#333E48;" d="M122.12,232.352c-14.85,0-26.933-12.082-26.933-26.933c0-13.134,10.224-37.258,26.933-37.258 s26.933,24.122,26.933,37.258C149.053,220.27,136.971,232.352,122.12,232.352z M122.12,184.931 c-2.721,0-10.164,11.615-10.164,20.489c0,5.604,4.559,10.164,10.164,10.164c5.605,0,10.164-4.56,10.164-10.164 C132.284,196.546,124.841,184.931,122.12,184.931z"></path> <rect x="132.417" y="342.386" style="fill:#333E48;" width="247.172" height="16.769"></rect> <path style="fill:#333E48;" d="M182.932,406.578c-14.85,0-26.933-12.082-26.933-26.933c0-13.136,10.224-37.258,26.933-37.258 s26.933,24.122,26.933,37.258C209.865,394.496,197.782,406.578,182.932,406.578z M182.932,359.157 c-2.721,0-10.164,11.615-10.164,20.489c0,5.604,4.559,10.164,10.164,10.164s10.164-4.56,10.164-10.164 C193.096,370.772,185.652,359.157,182.932,359.157z"></path> </g> <path style="fill:#6DABE4;" d="M54.315,447.925H15.352C6.873,447.925,0,441.052,0,432.573V331.56 c0-8.478,6.873-15.352,15.352-15.352h38.963V447.925z"></path> <rect y="346.824" style="fill:#333E48;" width="54.315" height="16.769"></rect> <rect x="33.906" y="316.808" style="opacity:0.15;enable-background:new ;" width="20.409" height="131.121"></rect> <path style="fill:#6DABE4;" d="M457.685,447.925h38.963c8.478,0,15.352-6.873,15.352-15.352V331.56 c0-8.478-6.873-15.352-15.352-15.352h-38.963V447.925z"></path> <rect x="457.687" y="346.824" style="fill:#333E48;" width="54.315" height="16.769"></rect> <path style="opacity:0.15;enable-background:new ;" d="M508.572,434.661h-31.56c-4.089,0-7.403-3.315-7.403-7.404v-111.05 h-11.925v131.718h38.963c7.898,0,14.395-5.965,15.251-13.635C510.826,434.527,509.716,434.661,508.572,434.661z"></path> <path style="opacity:0.15;enable-background:new ;" d="M165.765,442.529c-9.155,0-16.576-7.422-16.576-16.576V305.459h-0.192 c-9.155,0-16.576,7.422-16.576,16.577V443.18c0,9.155,7.422,16.577,16.576,16.577h214.014c9.155,0,16.577-7.422,16.577-16.577 v-0.652H165.765V442.529z"></path> <path style="opacity:0.15;enable-background:new ;" d="M434.254,485.663H125.451c-26.116,0-47.286-21.171-47.286-47.286V99.263 c0-7.629,1.818-14.829,5.026-21.209c-16.969,7.179-28.875,23.983-28.875,43.568v339.114c0,26.116,21.171,47.286,47.286,47.286 h308.805c18.487,0,34.484-10.615,42.26-26.077C447.008,484.339,440.785,485.663,434.254,485.663z"></path> </g></svg>