<svg width="53" height="54" viewBox="0 0 53 54" fill="none" xmlns="http://www.w3.org/2000/svg">
    <g filter="url(#filter0_b_282_610)">
        <path
            d="M26.4989 4.49707C22.1312 4.49707 17.8616 5.81583 14.23 8.28658C10.5984 10.7573 7.76797 14.2691 6.09653 18.3778C4.4251 22.4865 3.98777 27.0076 4.83986 31.3694C5.69195 35.7312 7.79519 39.7378 10.8836 42.8824C13.972 46.0271 17.9069 48.1686 22.1906 49.0363C26.4744 49.9039 30.9146 49.4586 34.9498 47.7567C38.985 46.0548 42.4339 43.1728 44.8605 39.475C47.287 35.7773 48.5822 31.4299 48.5822 26.9827C48.5822 24.0298 48.011 21.1059 46.9012 18.3778C45.7914 15.6497 44.1648 13.1709 42.1141 11.083C40.0635 8.99497 37.6291 7.33869 34.9498 6.20869C32.2705 5.07868 29.3989 4.49707 26.4989 4.49707ZM26.4989 44.9712C23.0047 44.9712 19.5891 43.9162 16.6838 41.9396C13.7785 39.963 11.5141 37.1536 10.177 33.8666C8.83985 30.5796 8.48999 26.9627 9.17166 23.4733C9.85334 19.9839 11.5359 16.7786 14.0067 14.2629C16.4774 11.7472 19.6253 10.0339 23.0523 9.33984C26.4793 8.64575 30.0315 9.00198 33.2596 10.3635C36.4878 11.725 39.2469 14.0306 41.1882 16.9888C43.1294 19.947 44.1655 23.4249 44.1655 26.9827C44.1655 31.7535 42.3042 36.329 38.9911 39.7025C35.678 43.076 31.1844 44.9712 26.4989 44.9712Z"
            fill="#0074B7" />
        <path
            d="M33.1239 24.734H28.7072V20.2368C28.7072 19.6405 28.4745 19.0686 28.0604 18.6469C27.6462 18.2252 27.0845 17.9883 26.4989 17.9883C25.9132 17.9883 25.3515 18.2252 24.9373 18.6469C24.5232 19.0686 24.2905 19.6405 24.2905 20.2368V24.734H19.8739C19.2882 24.734 18.7265 24.9709 18.3123 25.3926C17.8982 25.8142 17.6655 26.3862 17.6655 26.9825C17.6655 27.5789 17.8982 28.1508 18.3123 28.5725C18.7265 28.9942 19.2882 29.2311 19.8739 29.2311H24.2905V33.7282C24.2905 34.3246 24.5232 34.8965 24.9373 35.3182C25.3515 35.7399 25.9132 35.9768 26.4989 35.9768C27.0845 35.9768 27.6462 35.7399 28.0604 35.3182C28.4745 34.8965 28.7072 34.3246 28.7072 33.7282V29.2311H33.1239C33.7095 29.2311 34.2712 28.9942 34.6854 28.5725C35.0995 28.1508 35.3322 27.5789 35.3322 26.9825C35.3322 26.3862 35.0995 25.8142 34.6854 25.3926C34.2712 24.9709 33.7095 24.734 33.1239 24.734Z"
            fill="#0074B7" />
    </g>
    <defs>
        <filter id="filter0_b_282_610" x="0.415527" y="0.49707" width="52.1667" height="52.9712"
            filterUnits="userSpaceOnUse" color-interpolation-filters="sRGB">
            <feFlood flood-opacity="0" result="BackgroundImageFix" />
            <feGaussianBlur in="BackgroundImageFix" stdDeviation="2" />
            <feComposite in2="SourceAlpha" operator="in" result="effect1_backgroundBlur_282_610" />
            <feBlend mode="normal" in="SourceGraphic" in2="effect1_backgroundBlur_282_610"
                result="shape" />
        </filter>
    </defs>
</svg>
    