<svg xmlns="http://www.w3.org/2000/svg" xmlns:xlink="http://www.w3.org/1999/xlink" width="40"
    zoomAndPan="magnify" viewBox="0 0 30 30.000001" height="40" preserveAspectRatio="xMidYMid meet"
    version="1.0">
    <defs>
        <clipPath id="08a13e62ad">
            <path d="M 5.046875 14 L 10 14 L 10 23 L 5.046875 23 Z M 5.046875 14 "
                clip-rule="nonzero" />
        </clipPath>
        <clipPath id="cc8d6587fa">
            <path d="M 7 0.386719 L 12 0.386719 L 12 4 L 7 4 Z M 7 0.386719 " clip-rule="nonzero" />
        </clipPath>
        <clipPath id="84f457c482">
            <path d="M 5.046875 3 L 15 3 L 15 26 L 5.046875 26 Z M 5.046875 3 " clip-rule="nonzero" />
        </clipPath>
        <clipPath id="8c21361570">
            <path
                d="M 12.085938 15.792969 L 24.640625 15.792969 L 24.640625 28.59375 L 12.085938 28.59375 Z M 12.085938 15.792969 "
                clip-rule="nonzero" />
        </clipPath>
    </defs>
    <g clip-path="url(#08a13e62ad)">
        <path fill="#0074b7"
            d="M 7.816406 17.066406 L 6.191406 17.066406 C 5.96875 17.066406 5.75 16.84375 5.75 16.625 C 5.75 16.40625 5.925781 16.183594 6.191406 16.183594 L 7.773438 16.183594 C 8.039062 16.183594 8.214844 16.40625 8.214844 16.625 C 8.257812 16.84375 8.039062 17.066406 7.816406 17.066406 Z M 7.816406 20.144531 L 6.191406 20.144531 C 5.96875 20.144531 5.75 19.925781 5.75 19.707031 C 5.75 19.484375 5.925781 19.265625 6.191406 19.265625 L 7.773438 19.265625 C 8.039062 19.265625 8.214844 19.484375 8.214844 19.707031 C 8.257812 19.925781 8.039062 20.144531 7.816406 20.144531 Z M 9.753906 21.597656 L 9.753906 14.734375 C 9.753906 14.511719 9.578125 14.292969 9.3125 14.292969 L 5.046875 14.292969 L 5.046875 22.039062 L 9.3125 22.039062 C 9.578125 22.039062 9.753906 21.859375 9.753906 21.597656 "
            fill-opacity="1" fill-rule="nonzero" />
    </g>
    <g clip-path="url(#cc8d6587fa)">
        <path fill="#0074b7"
            d="M 11.863281 0.875 C 11.863281 0.609375 11.644531 0.433594 11.425781 0.433594 L 8.214844 0.433594 C 7.992188 0.433594 7.773438 0.609375 7.773438 0.875 L 7.773438 3.074219 L 11.863281 3.074219 L 11.863281 0.875 "
            fill-opacity="1" fill-rule="nonzero" />
    </g>
    <g clip-path="url(#84f457c482)">
        <path fill="#0074b7"
            d="M 14.636719 16.097656 L 14.636719 11.742188 C 14.636719 8.839844 11.910156 8.574219 11.910156 6.59375 L 11.910156 3.953125 L 7.816406 3.953125 L 7.816406 6.546875 C 7.816406 8.484375 5.089844 8.839844 5.089844 11.699219 L 5.089844 13.371094 L 9.359375 13.371094 C 10.105469 13.371094 10.679688 13.984375 10.679688 14.691406 L 10.679688 21.550781 C 10.679688 22.300781 10.105469 22.871094 9.359375 22.871094 L 5.089844 22.871094 L 5.089844 24.324219 C 5.089844 25.074219 5.707031 25.6875 6.453125 25.6875 L 12.21875 25.6875 C 11.644531 24.632812 11.292969 23.445312 11.292969 22.171875 C 11.25 19.617188 12.613281 17.371094 14.636719 16.09375 L 14.636719 16.097656 "
            fill-opacity="1" fill-rule="nonzero" />
    </g>
    <g clip-path="url(#8c21361570)">
        <path fill="#0074b7"
            d="M 19.742188 25.246094 L 20.3125 25.601562 C 20.53125 25.730469 20.578125 25.996094 20.488281 26.21875 C 20.355469 26.4375 20.09375 26.480469 19.871094 26.390625 L 18.246094 25.46875 C 18.070312 25.335938 17.980469 25.074219 18.070312 24.851562 L 18.992188 23.226562 C 19.125 23.003906 19.390625 22.960938 19.609375 23.046875 C 19.828125 23.179688 19.871094 23.445312 19.785156 23.664062 L 19.300781 24.5 C 20.398438 24.148438 21.191406 23.09375 21.191406 21.90625 C 21.191406 21.640625 21.371094 21.464844 21.632812 21.464844 C 21.898438 21.464844 22.070312 21.640625 22.070312 21.90625 C 22.117188 23.398438 21.148438 24.71875 19.738281 25.246094 Z M 17.410156 21.375 C 17.191406 21.246094 17.144531 20.980469 17.234375 20.761719 L 17.71875 19.925781 C 16.617188 20.277344 15.824219 21.332031 15.824219 22.519531 C 15.824219 22.785156 15.648438 22.960938 15.386719 22.960938 C 15.121094 22.960938 14.945312 22.785156 14.945312 22.519531 C 14.945312 20.980469 15.914062 19.660156 17.320312 19.132812 L 16.75 18.824219 C 16.53125 18.691406 16.484375 18.425781 16.574219 18.210938 C 16.703125 17.988281 16.96875 17.945312 17.191406 18.03125 L 18.816406 18.957031 C 18.992188 19.089844 19.078125 19.351562 18.992188 19.574219 L 18.070312 21.199219 C 17.890625 21.421875 17.628906 21.464844 17.410156 21.375 Z M 24.933594 21.992188 C 24.800781 18.519531 22.03125 15.832031 18.550781 15.832031 C 15.03125 15.832031 12.171875 18.691406 12.171875 22.210938 C 12.171875 25.730469 15.03125 28.59375 18.550781 28.59375 C 20.355469 28.59375 21.984375 27.84375 23.261719 26.523438 C 24.40625 25.246094 25.023438 23.621094 24.933594 21.992188 "
            fill-opacity="1" fill-rule="nonzero" />
    </g>
    <path fill="#0074b7"
        d="M 19.523438 9.851562 C 19.742188 9.851562 19.917969 9.671875 19.917969 9.453125 L 19.917969 7.386719 C 19.917969 7.164062 20.09375 6.945312 20.355469 6.945312 C 20.578125 6.945312 20.796875 7.164062 20.796875 7.386719 L 20.796875 9.453125 C 20.796875 10.15625 20.226562 10.730469 19.523438 10.730469 C 19.300781 10.730469 19.082031 10.507812 19.082031 10.289062 C 19.082031 10.027344 19.257812 9.851562 19.523438 9.851562 Z M 18.863281 12.886719 L 18.863281 14.953125 C 19.167969 14.953125 19.476562 14.996094 19.742188 15.039062 L 19.742188 12.886719 C 21.542969 12.664062 22.953125 11.125 22.953125 9.277344 L 22.953125 4.261719 C 22.953125 4.039062 22.777344 3.820312 22.511719 3.820312 L 16.132812 3.820312 C 15.914062 3.820312 15.691406 4.039062 15.691406 4.261719 L 15.691406 9.277344 C 15.691406 11.125 17.058594 12.664062 18.859375 12.886719 L 18.863281 12.886719 "
        fill-opacity="1" fill-rule="nonzero" />
</svg>