<svg width="20" height="20" viewBox="0 0 20 20" fill="none" xmlns="http://www.w3.org/2000/svg">
    <path
        d="M12.3056 0.955005L19.045 7.69441C20.3183 8.96775 20.3183 11.0322 19.045 12.3056L12.3056 19.045C11.0322 20.3183 8.96775 20.3183 7.69441 19.045L0.955005 12.3056C-0.318335 11.0322 -0.318335 8.96775 0.955005 7.69441L7.69441 0.955005C8.96775 -0.318335 11.0322 -0.318335 12.3056 0.955005ZM8.75853 2.01912L2.01912 8.75853C1.33348 9.44417 1.33348 10.5558 2.01912 11.2415L8.75853 17.9809C9.44417 18.6665 10.5558 18.6665 11.2415 17.9809L17.9809 11.2415C18.6665 10.5558 18.6665 9.44417 17.9809 8.75853L11.2415 2.01912C10.5558 1.33348 9.44417 1.33348 8.75853 2.01912ZM10.4592 5.28915L10.5321 5.20475C10.7992 4.93762 11.2172 4.91333 11.5118 5.1319L11.5962 5.20475L13.6027 7.21127C13.8698 7.47841 13.8941 7.89643 13.6755 8.191L13.6027 8.27539L11.5962 10.2819C11.3023 10.5758 10.8259 10.5758 10.5321 10.2819C10.2649 10.0148 10.2406 9.59675 10.4592 9.30218L10.5321 9.21779L11.2536 8.4946L9.74919 8.49511C9.09987 8.49511 8.56581 8.98859 8.50159 9.62096L8.49511 9.74919V13.0098C8.49511 13.4253 8.15823 13.7622 7.74267 13.7622C7.36173 13.7622 7.04692 13.4791 6.99709 13.1119L6.99022 13.0098V9.74919C6.99022 8.28189 8.13565 7.08212 9.58112 6.99526L9.74919 6.99022L11.2526 6.98971L10.5321 6.26887C10.2649 6.00174 10.2406 5.58371 10.4592 5.28915Z"
        fill="#228B22" />
</svg>
    