<svg width="34" height="34" viewBox="0 0 34 34" fill="none" xmlns="http://www.w3.org/2000/svg">
    <path
        d="M20.4427 1.5865L31.6385 12.7824C33.7539 14.8977 33.7539 18.3273 31.6385 20.4427L20.4427 31.6385C18.3273 33.7539 14.8977 33.7539 12.7824 31.6385L1.5865 20.4427C-0.528835 18.3273 -0.528835 14.8977 1.5865 12.7824L12.7824 1.5865C14.8977 -0.528835 18.3273 -0.528835 20.4427 1.5865ZM14.5501 3.35427L3.35427 14.5501C2.21524 15.6892 2.21524 17.5359 3.35427 18.6749L14.5501 29.8708C15.6892 31.0098 17.5359 31.0098 18.6749 29.8708L29.8708 18.6749C31.0098 17.5359 31.0098 15.6892 29.8708 14.5501L18.6749 3.35427C17.5359 2.21524 15.6892 2.21524 14.5501 3.35427ZM17.3754 8.78661L17.4964 8.64641C17.9402 8.20263 18.6346 8.16229 19.124 8.52538L19.2642 8.64641L22.5975 11.9797C23.0413 12.4235 23.0816 13.118 22.7185 13.6073L22.5975 13.7475L19.2642 17.0808C18.776 17.569 17.9846 17.569 17.4964 17.0808C17.0526 16.6371 17.0123 15.9426 17.3754 15.4533L17.4964 15.3131L18.695 14.1117L16.1959 14.1125C15.1172 14.1125 14.23 14.9323 14.1233 15.9828L14.1125 16.1959V21.6125C14.1125 22.3029 13.5529 22.8625 12.8625 22.8625C12.2297 22.8625 11.7067 22.3923 11.6239 21.7821L11.6125 21.6125V16.1959C11.6125 13.7583 13.5154 11.7652 15.9167 11.6209L16.1959 11.6125L18.6933 11.6117L17.4964 10.4142C17.0526 9.9704 17.0123 9.27596 17.3754 8.78661Z"
        fill="#0074B7" />
</svg>
    