<svg width="30" height="100" viewBox="0 0 30 100" fill="none" xmlns="http://www.w3.org/2000/svg">
    <path
        d="M15 73.4375C13.9321 73.438 12.8747 73.6494 11.8888 74.0598C10.9028 74.4701 10.0076 75.0712 9.25469 75.8286C7.72969 77.3625 6.8741 79.4379 6.875 81.6009C6.875 84.1941 7.54625 86.0805 10.1267 89.2412C11.3255 90.604 12.3758 92.0905 13.26 93.6756C14.1956 95.5814 14.0853 96.875 15 96.875C15.9147 96.875 15.8044 95.5814 16.74 93.6756C17.6242 92.0905 18.6745 90.604 19.8733 89.2412C22.4538 86.0805 23.125 84.1939 23.125 81.6009C23.1259 79.4379 22.2703 77.3626 20.7453 75.8286C19.9924 75.0712 19.0972 74.4701 18.1112 74.0598C17.1253 73.6494 16.0679 73.438 15 73.4375Z"
        stroke="#FF0000" stroke-width="3.75" />
    <path
        d="M15 84.6875C16.7259 84.6875 18.125 83.2884 18.125 81.5625C18.125 79.8366 16.7259 78.4375 15 78.4375C13.2741 78.4375 11.875 79.8366 11.875 81.5625C11.875 83.2884 13.2741 84.6875 15 84.6875Z"
        stroke="#FF0000" stroke-width="3.75" />
    <circle cx="15" cy="10" r="10" fill="white" />
    <circle cx="15" cy="10" r="8" stroke="black" stroke-opacity="0.5" stroke-width="4" />
    <circle cx="15" cy="31" r="5" fill="white" />
    <circle cx="15" cy="31" r="3" stroke="black" stroke-opacity="0.5" stroke-width="4" />
    <circle cx="15" cy="44" r="5" fill="white" />
    <circle cx="15" cy="44" r="3" stroke="black" stroke-opacity="0.5" stroke-width="4" />
    <circle cx="15" cy="57" r="5" fill="white" />
    <circle cx="15" cy="57" r="3" stroke="black" stroke-opacity="0.5" stroke-width="4" />
</svg>
    