<svg xmlns="http://www.w3.org/2000/svg" xmlns:xlink="http://www.w3.org/1999/xlink" width="40" zoomAndPan="magnify" viewBox="0 0 30 30.000001" height="40" preserveAspectRatio="xMidYMid meet" version="1.0"><defs><clipPath id="4e0ef0cae1"><path d="M 0.484375 18 L 4 18 L 4 24 L 0.484375 24 Z M 0.484375 18 " clip-rule="nonzero"/></clipPath><clipPath id="79b8ad043d"><path d="M 4 20 L 9 20 L 9 25.546875 L 4 25.546875 Z M 4 20 " clip-rule="nonzero"/></clipPath><clipPath id="db01013228"><path d="M 7 15 L 26 15 L 26 25.546875 L 7 25.546875 Z M 7 15 " clip-rule="nonzero"/></clipPath><clipPath id="1f378966fa"><path d="M 23 9 L 29.515625 9 L 29.515625 14 L 23 14 Z M 23 9 " clip-rule="nonzero"/></clipPath><clipPath id="853adc1997"><path d="M 7 11 L 29.515625 11 L 29.515625 25.546875 L 7 25.546875 Z M 7 11 " clip-rule="nonzero"/></clipPath><clipPath id="e03789fdb1"><path d="M 3 3.773438 L 27 3.773438 L 27 18 L 3 18 Z M 3 3.773438 " clip-rule="nonzero"/></clipPath></defs><g clip-path="url(#4e0ef0cae1)"><path fill="#939192" d="M 3.203125 21.304688 L 3.203125 19.648438 L 1.242188 18.535156 L 1.242188 20.488281 L 0.488281 21.46875 L 3.980469 23.292969 L 3.265625 21.464844 L 3.203125 21.304688 " fill-opacity="1" fill-rule="nonzero"/></g><path fill="#b9b7b8" d="M 3.78125 19.320312 L 2.890625 18.855469 L 3.644531 17.875 L 3.644531 17.179688 L 1.253906 18.535156 L 3.207031 19.644531 L 3.210938 19.644531 L 3.78125 19.320312 " fill-opacity="1" fill-rule="nonzero"/><path fill="#b9b7b8" d="M 5.605469 17.035156 L 5.609375 17.03125 L 4.757812 16.546875 L 4.75 16.550781 L 5.605469 17.035156 " fill-opacity="1" fill-rule="nonzero"/><path fill="#bdbcbc" d="M 3.265625 21.464844 L 5.476562 20.207031 L 3.78125 19.320312 L 3.210938 19.644531 L 3.207031 19.644531 L 3.203125 19.648438 L 3.203125 21.304688 L 3.265625 21.464844 " fill-opacity="1" fill-rule="nonzero"/><path fill="#d1d0d0" d="M 6.894531 21.640625 L 6.898438 21.636719 L 5.402344 20.789062 L 5.972656 20.464844 L 5.476562 20.207031 L 3.265625 21.464844 L 3.980469 23.292969 L 5.390625 22.492188 L 5.390625 20.789062 L 6.894531 21.640625 " fill-opacity="1" fill-rule="nonzero"/><g clip-path="url(#79b8ad043d)"><path fill="#939192" d="M 7.414062 23.714844 L 7.351562 23.558594 L 7.351562 21.898438 L 6.894531 21.640625 L 5.390625 20.789062 L 5.390625 22.742188 L 4.636719 23.722656 L 8.128906 25.546875 L 7.433594 23.765625 L 7.414062 23.714844 " fill-opacity="1" fill-rule="nonzero"/></g><path fill="#b9b7b8" d="M 21.546875 12.066406 L 20.273438 12.789062 L 20.191406 12.835938 L 15.035156 15.765625 L 12.828125 17.019531 L 11.554688 17.742188 L 8.160156 19.671875 L 6.382812 20.679688 L 5.972656 20.464844 L 5.402344 20.789062 L 6.898438 21.636719 L 7.359375 21.898438 L 12.183594 19.152344 L 12.34375 19.0625 L 12.316406 19.046875 L 14.539062 17.785156 L 14.566406 17.800781 L 20.90625 14.199219 L 21.066406 14.109375 L 21.035156 14.09375 L 23.257812 12.828125 L 23.261719 12.828125 L 23.289062 12.84375 L 27.320312 10.554688 L 28.734375 9.75 L 28.734375 9.757812 L 28.746094 9.75 L 27.183594 8.863281 L 25.738281 9.683594 L 21.546875 12.066406 " fill-opacity="1" fill-rule="nonzero"/><g clip-path="url(#db01013228)"><path fill="#d5d4d5" d="M 8.128906 25.546875 L 7.433594 23.765625 L 8.128906 25.546875 L 15.773438 21.203125 L 17.996094 19.941406 L 24.492188 16.25 L 25.273438 15.808594 L 8.128906 25.546875 " fill-opacity="1" fill-rule="nonzero"/></g><path fill="#d5d4d5" d="M 21.066406 14.109375 L 20.90625 14.199219 L 14.566406 17.800781 L 16.191406 18.726562 L 22.691406 15.035156 L 21.066406 14.109375 " fill-opacity="1" fill-rule="nonzero"/><g clip-path="url(#1f378966fa)"><path fill="#d5d4d5" d="M 27.320312 10.554688 L 23.289062 12.84375 L 24.914062 13.773438 L 28.75 11.59375 L 29.148438 12.53125 L 28.75 11.59375 L 28.734375 11.558594 L 28.734375 9.75 L 27.320312 10.554688 " fill-opacity="1" fill-rule="nonzero"/></g><path fill="#d5d4d5" d="M 12.34375 19.0625 L 12.183594 19.152344 L 7.359375 21.898438 L 7.351562 21.898438 L 7.351562 23.558594 L 7.414062 23.714844 L 13.96875 19.992188 L 12.34375 19.0625 " fill-opacity="1" fill-rule="nonzero"/><g clip-path="url(#853adc1997)"><path fill="#d1d0d0" d="M 28.75 11.59375 L 24.914062 13.773438 L 26.847656 14.878906 L 24.625 16.144531 L 22.691406 15.035156 L 16.191406 18.730469 L 18.128906 19.835938 L 15.90625 21.097656 L 13.96875 19.992188 L 7.414062 23.714844 L 7.433594 23.765625 L 8.128906 25.546875 L 25.273438 15.808594 L 29.515625 13.398438 L 29.148438 12.53125 L 28.75 11.59375 " fill-opacity="1" fill-rule="nonzero"/></g><path fill="#939192" d="M 2.890625 18.855469 L 3.78125 19.320312 L 5.476562 20.207031 L 5.972656 20.464844 L 6.382812 20.679688 L 5.84375 19.304688 L 5.667969 18.851562 L 5.667969 18.847656 L 5.605469 18.691406 L 5.605469 17.035156 L 4.75 16.550781 L 3.644531 15.921875 L 3.644531 17.875 L 2.890625 18.855469 " fill-opacity="1" fill-rule="nonzero"/><g clip-path="url(#e03789fdb1)"><path fill="#b9b7b8" d="M 5.609375 17.03125 L 7.015625 16.234375 L 9.238281 14.96875 L 15.734375 11.28125 L 17.960938 10.015625 L 22.148438 7.632812 L 24.375 6.371094 L 26.988281 4.886719 L 26.988281 4.890625 L 27 4.882812 L 25.039062 3.773438 L 3.65625 15.921875 L 4.757812 16.546875 L 5.609375 17.03125 " fill-opacity="1" fill-rule="nonzero"/></g><path fill="#d5d4d5" d="M 19.582031 10.941406 L 23.773438 8.5625 L 22.148438 7.632812 L 17.960938 10.015625 L 19.582031 10.941406 " fill-opacity="1" fill-rule="nonzero"/><path fill="#d5d4d5" d="M 10.863281 15.898438 L 17.359375 12.207031 L 15.734375 11.28125 L 9.238281 14.96875 L 10.863281 15.898438 " fill-opacity="1" fill-rule="nonzero"/><path fill="#d5d4d5" d="M 8.640625 17.160156 L 7.015625 16.234375 L 5.609375 17.03125 L 5.605469 17.035156 L 5.605469 18.691406 L 5.667969 18.847656 L 5.667969 18.851562 L 8.640625 17.160156 " fill-opacity="1" fill-rule="nonzero"/><path fill="#d5d4d5" d="M 21.546875 12.066406 L 25.738281 9.683594 L 21.546875 12.066406 " fill-opacity="1" fill-rule="nonzero"/><path fill="#d5d4d5" d="M 6.382812 20.679688 L 8.160156 19.671875 L 6.382812 20.679688 L 5.84375 19.304688 L 6.382812 20.679688 " fill-opacity="1" fill-rule="nonzero"/><path fill="#d5d4d5" d="M 11.554688 17.742188 L 12.828125 17.019531 L 11.703125 17.65625 Z M 11.554688 17.742188 " fill-opacity="1" fill-rule="nonzero"/><path fill="#d5d4d5" d="M 12.828125 17.019531 L 15.035156 15.765625 Z M 12.828125 17.019531 " fill-opacity="1" fill-rule="nonzero"/><path fill="#d5d4d5" d="M 24.375 6.371094 L 26 7.296875 L 27.003906 6.726562 L 27.113281 6.984375 L 27.003906 6.726562 L 26.988281 6.695312 L 26.988281 4.886719 L 24.375 6.371094 " fill-opacity="1" fill-rule="nonzero"/><path fill="#d1d0d0" d="M 26 7.296875 L 27.640625 8.238281 L 27.765625 8.53125 L 27.109375 6.984375 L 27.003906 6.726562 L 26 7.296875 " fill-opacity="1" fill-rule="nonzero"/><path fill="#d1d0d0" d="M 19.582031 10.941406 L 21.546875 12.066406 L 25.738281 9.683594 L 23.773438 8.5625 L 19.582031 10.941406 " fill-opacity="1" fill-rule="nonzero"/><path fill="#d1d0d0" d="M 17.359375 12.207031 L 10.863281 15.898438 L 12.828125 17.019531 L 15.035156 15.765625 L 20.191406 12.835938 L 19.324219 13.328125 L 17.359375 12.207031 " fill-opacity="1" fill-rule="nonzero"/><path fill="#d1d0d0" d="M 6.382812 20.679688 L 8.160156 19.671875 L 11.554688 17.742188 L 11.703125 17.65625 L 11.636719 17.695312 L 10.605469 18.28125 L 8.640625 17.160156 L 5.667969 18.851562 L 5.84375 19.304688 L 6.382812 20.679688 " fill-opacity="1" fill-rule="nonzero"/><path fill="#e6e6e6" d="M 8.640625 17.160156 L 10.863281 15.898438 L 9.238281 14.96875 L 7.015625 16.234375 L 8.640625 17.160156 " fill-opacity="1" fill-rule="nonzero"/><path fill="#e6e6e6" d="M 12.828125 17.019531 L 11.636719 17.695312 L 11.703125 17.65625 L 12.828125 17.019531 " fill-opacity="1" fill-rule="nonzero"/><path fill="#e3e3e3" d="M 10.863281 15.898438 L 8.640625 17.160156 L 10.605469 18.28125 L 11.636719 17.695312 L 12.828125 17.019531 L 10.863281 15.898438 " fill-opacity="1" fill-rule="nonzero"/><path fill="#d5d4d4" d="M 14.40625 17.890625 L 14.566406 17.800781 L 14.539062 17.785156 L 12.316406 19.046875 L 12.34375 19.0625 L 14.40625 17.890625 " fill-opacity="1" fill-rule="nonzero"/><path fill="#e6e6e6" d="M 14.566406 17.800781 L 14.40625 17.890625 L 12.34375 19.0625 L 13.96875 19.992188 L 16.191406 18.726562 L 14.566406 17.800781 " fill-opacity="1" fill-rule="nonzero"/><path fill="#e3e3e3" d="M 15.90625 21.097656 L 18.128906 19.835938 L 16.191406 18.726562 L 13.96875 19.992188 L 15.90625 21.097656 " fill-opacity="1" fill-rule="nonzero"/><path fill="#e6e6e6" d="M 17.359375 12.207031 L 19.582031 10.941406 L 17.960938 10.015625 L 15.734375 11.28125 L 17.359375 12.207031 " fill-opacity="1" fill-rule="nonzero"/><path fill="#e6e6e6" d="M 20.277344 12.789062 L 21.546875 12.066406 Z M 20.277344 12.789062 " fill-opacity="1" fill-rule="nonzero"/><path fill="#e3e3e3" d="M 21.546875 12.066406 L 19.582031 10.941406 L 17.359375 12.207031 L 19.324219 13.328125 L 20.191406 12.835938 L 20.277344 12.789062 L 21.546875 12.066406 " fill-opacity="1" fill-rule="nonzero"/><path fill="#d5d4d4" d="M 23.128906 12.9375 L 23.289062 12.84375 L 23.261719 12.828125 L 23.257812 12.828125 L 21.035156 14.09375 L 21.066406 14.109375 L 23.128906 12.9375 " fill-opacity="1" fill-rule="nonzero"/><path fill="#e6e6e6" d="M 24.914062 13.773438 L 23.289062 12.84375 L 23.128906 12.9375 L 21.066406 14.109375 L 22.691406 15.035156 L 24.914062 13.773438 " fill-opacity="1" fill-rule="nonzero"/><path fill="#e3e3e3" d="M 22.691406 15.035156 L 24.625 16.144531 L 26.847656 14.878906 L 24.914062 13.773438 L 22.691406 15.035156 " fill-opacity="1" fill-rule="nonzero"/><path fill="#e6e6e6" d="M 25.738281 9.683594 L 27.183594 8.863281 L 27.765625 8.53125 L 25.738281 9.683594 " fill-opacity="1" fill-rule="nonzero"/><path fill="#e6e6e6" d="M 23.773438 8.5625 L 26 7.296875 L 24.375 6.371094 L 22.148438 7.632812 L 23.773438 8.5625 " fill-opacity="1" fill-rule="nonzero"/><path fill="#e3e3e3" d="M 26 7.296875 L 23.773438 8.5625 L 25.738281 9.683594 L 27.765625 8.53125 L 27.640625 8.238281 L 26 7.296875 " fill-opacity="1" fill-rule="nonzero"/></svg>