<svg xmlns="http://www.w3.org/2000/svg" xmlns:xlink="http://www.w3.org/1999/xlink" width="40"
    zoomAndPan="magnify" viewBox="0 0 30 30.000001" height="40" preserveAspectRatio="xMidYMid meet"
    version="1.0">
    <defs>
        <clipPath id="35bad4b023">
            <path d="M 11 6.917969 L 23 6.917969 L 23 15 L 11 15 Z M 11 6.917969 "
                clip-rule="nonzero" />
        </clipPath>
        <clipPath id="052cb7924e">
            <path d="M 19 14 L 26.085938 14 L 26.085938 22 L 19 22 Z M 19 14 " clip-rule="nonzero" />
        </clipPath>
        <clipPath id="f826322033">
            <path
                d="M 15.203125 20.171875 L 26.085938 20.171875 L 26.085938 28.695312 L 15.203125 28.695312 Z M 15.203125 20.171875 "
                clip-rule="nonzero" />
        </clipPath>
        <clipPath id="81694e11c7">
            <path d="M 3.585938 14 L 12 14 L 12 27 L 3.585938 27 Z M 3.585938 14 "
                clip-rule="nonzero" />
        </clipPath>
        <clipPath id="92c86d8f92">
            <path
                d="M 4.296875 1.34375 L 13.019531 1.34375 L 13.019531 22.472656 L 4.296875 22.472656 Z M 4.296875 1.34375 "
                clip-rule="nonzero" />
        </clipPath>
        <clipPath id="72228168d4">
            <path d="M 3.585938 0 L 13.023438 0 L 13.023438 22 L 3.585938 22 Z M 3.585938 0 "
                clip-rule="nonzero" />
        </clipPath>
        <clipPath id="031f557e10">
            <path d="M 3.585938 1 L 10 1 L 10 22 L 3.585938 22 Z M 3.585938 1 " clip-rule="nonzero" />
        </clipPath>
        <clipPath id="d363104e6b">
            <path
                d="M 3.65625 0.484375 L 11.191406 0.484375 L 11.191406 22.472656 L 3.65625 22.472656 Z M 3.65625 0.484375 "
                clip-rule="nonzero" />
        </clipPath>
    </defs>
    <path fill="#768692"
        d="M 13.359375 8.554688 C 12.941406 8.136719 12.480469 7.84375 11.933594 7.632812 C 11.554688 7.546875 11.179688 7.546875 10.84375 7.589844 L 8.074219 12.371094 L 12.226562 14.761719 L 14.785156 10.359375 L 14.742188 10.316406 C 14.367188 9.644531 13.90625 9.058594 13.359375 8.554688 "
        fill-opacity="1" fill-rule="nonzero" />
    <g clip-path="url(#35bad4b023)">
        <path fill="#768692"
            d="M 15.289062 14.382812 L 20.613281 14.71875 L 22.964844 9.980469 L 21.203125 10.988281 C 20.574219 9.855469 19.902344 8.722656 19.230469 7.589844 C 19.0625 7.296875 18.6875 6.960938 18.308594 6.960938 C 16.210938 6.917969 14.074219 6.960938 11.933594 6.960938 C 11.722656 6.960938 11.515625 7.003906 11.347656 7.128906 C 12.058594 7.042969 12.8125 7.507812 13.402344 7.96875 C 14.113281 8.511719 14.703125 9.265625 15.164062 10.066406 L 17.050781 13.378906 L 15.289062 14.382812 "
            fill-opacity="1" fill-rule="nonzero" />
    </g>
    <g clip-path="url(#052cb7924e)">
        <path fill="#768692"
            d="M 21.875 21.726562 L 21.957031 21.726562 C 22.710938 21.726562 23.46875 21.640625 24.179688 21.429688 C 24.726562 21.261719 25.230469 21.011719 25.648438 20.632812 C 25.941406 20.339844 26.109375 20.046875 26.234375 19.710938 L 23.507812 14.929688 L 19.355469 17.320312 L 21.875 21.726562 "
            fill-opacity="1" fill-rule="nonzero" />
    </g>
    <g clip-path="url(#f826322033)">
        <path fill="#768692"
            d="M 24.683594 21.726562 C 23.804688 22.058594 22.878906 22.183594 21.957031 22.183594 L 18.140625 22.183594 L 18.140625 20.171875 L 15.207031 24.578125 L 18.140625 29.023438 L 18.140625 26.96875 C 19.441406 26.96875 20.742188 27.007812 22.082031 26.96875 C 22.417969 26.96875 22.878906 26.800781 23.046875 26.503906 C 24.140625 24.660156 25.1875 22.816406 26.234375 20.96875 C 26.363281 20.800781 26.402344 20.589844 26.402344 20.339844 C 26.109375 21.054688 25.355469 21.472656 24.683594 21.726562 "
            fill-opacity="1" fill-rule="nonzero" />
    </g>
    <g clip-path="url(#81694e11c7)">
        <path fill="#768692"
            d="M 7.109375 24.617188 C 7.234375 23.695312 7.613281 22.816406 8.074219 22.019531 L 9.960938 18.703125 L 11.722656 19.710938 L 9.375 14.972656 L 4.046875 15.308594 L 5.808594 16.3125 C 5.140625 17.445312 4.507812 18.578125 3.839844 19.710938 C 3.671875 20.003906 3.585938 20.507812 3.753906 20.84375 C 4.804688 22.6875 5.894531 24.535156 6.941406 26.339844 C 7.066406 26.546875 7.234375 26.714844 7.402344 26.800781 C 6.984375 26.210938 6.984375 25.332031 7.109375 24.617188 "
            fill-opacity="1" fill-rule="nonzero" />
    </g>
    <path fill="#768692"
        d="M 8.453125 22.226562 C 8.074219 22.898438 7.78125 23.613281 7.613281 24.324219 C 7.488281 24.871094 7.445312 25.457031 7.53125 26.003906 C 7.65625 26.378906 7.824219 26.714844 8.03125 26.96875 L 13.570312 26.96875 L 13.570312 22.183594 L 8.496094 22.183594 L 8.453125 22.226562 "
        fill-opacity="1" fill-rule="nonzero" />
    <path fill="#ffffff"
        d="M 14.988281 18.914062 C 14.527344 18.914062 14.152344 18.539062 14.152344 18.082031 C 14.152344 17.621094 14.527344 17.246094 14.984375 17.246094 L 14.988281 17.246094 C 15.449219 17.246094 15.824219 17.621094 15.824219 18.082031 C 15.824219 18.539062 15.449219 18.914062 14.988281 18.914062 Z M 17.171875 17.742188 C 17.148438 17.582031 17.105469 17.425781 17.050781 17.277344 C 17.035156 17.242188 17.046875 17.207031 17.070312 17.183594 L 17.511719 16.796875 L 17.359375 16.535156 L 16.816406 16.71875 C 16.78125 16.734375 16.738281 16.726562 16.710938 16.695312 C 16.609375 16.566406 16.492188 16.453125 16.367188 16.351562 C 16.332031 16.324219 16.324219 16.273438 16.347656 16.238281 C 16.351562 16.234375 16.351562 16.230469 16.355469 16.230469 L 16.53125 15.707031 L 16.269531 15.554688 L 15.898438 15.976562 C 15.878906 16.015625 15.832031 16.035156 15.792969 16.019531 C 15.636719 15.960938 15.476562 15.917969 15.316406 15.894531 C 15.269531 15.886719 15.238281 15.847656 15.242188 15.804688 C 15.242188 15.796875 15.246094 15.792969 15.246094 15.785156 L 15.140625 15.253906 L 14.835938 15.253906 L 14.726562 15.796875 C 14.726562 15.800781 14.726562 15.800781 14.726562 15.804688 C 14.730469 15.847656 14.703125 15.886719 14.660156 15.894531 C 14.496094 15.917969 14.335938 15.960938 14.179688 16.019531 C 14.140625 16.035156 14.09375 16.019531 14.074219 15.980469 C 14.070312 15.976562 14.070312 15.972656 14.070312 15.96875 L 13.703125 15.554688 L 13.441406 15.707031 L 13.621094 16.238281 C 13.644531 16.277344 13.640625 16.324219 13.605469 16.351562 C 13.480469 16.453125 13.363281 16.570312 13.261719 16.695312 C 13.234375 16.730469 13.191406 16.738281 13.15625 16.714844 L 12.613281 16.535156 L 12.460938 16.796875 L 12.902344 17.183594 C 12.929688 17.207031 12.9375 17.246094 12.925781 17.277344 C 12.867188 17.425781 12.824219 17.582031 12.800781 17.742188 C 12.796875 17.777344 12.769531 17.804688 12.734375 17.8125 L 12.160156 17.929688 L 12.160156 18.230469 L 12.734375 18.347656 C 12.769531 18.355469 12.796875 18.382812 12.800781 18.417969 C 12.824219 18.574219 12.867188 18.730469 12.925781 18.882812 C 12.9375 18.914062 12.929688 18.953125 12.902344 18.976562 L 12.460938 19.359375 L 12.613281 19.625 L 13.167969 19.4375 C 13.203125 19.425781 13.238281 19.4375 13.261719 19.464844 C 13.363281 19.589844 13.480469 19.707031 13.605469 19.808594 C 13.640625 19.835938 13.648438 19.882812 13.625 19.921875 C 13.621094 19.921875 13.621094 19.921875 13.621094 19.925781 L 13.441406 20.453125 L 13.703125 20.605469 L 14.089844 20.164062 C 14.113281 20.136719 14.152344 20.128906 14.1875 20.140625 C 14.339844 20.199219 14.496094 20.242188 14.65625 20.265625 C 14.699219 20.273438 14.730469 20.3125 14.726562 20.355469 C 14.726562 20.359375 14.726562 20.363281 14.726562 20.363281 L 14.835938 20.90625 L 15.140625 20.90625 L 15.25 20.355469 C 15.246094 20.3125 15.273438 20.273438 15.316406 20.265625 C 15.476562 20.242188 15.636719 20.199219 15.789062 20.140625 C 15.820312 20.128906 15.859375 20.136719 15.882812 20.164062 L 16.269531 20.605469 L 16.53125 20.453125 L 16.351562 19.917969 C 16.328125 19.882812 16.332031 19.835938 16.367188 19.808594 C 16.492188 19.707031 16.609375 19.589844 16.710938 19.464844 C 16.734375 19.4375 16.769531 19.425781 16.804688 19.4375 L 17.359375 19.625 L 17.511719 19.359375 L 17.074219 18.976562 C 17.046875 18.953125 17.035156 18.914062 17.050781 18.882812 C 17.109375 18.734375 17.148438 18.578125 17.175781 18.417969 C 17.179688 18.382812 17.207031 18.351562 17.242188 18.347656 L 17.8125 18.230469 L 17.8125 17.929688 L 17.242188 17.8125 C 17.207031 17.804688 17.179688 17.777344 17.171875 17.742188 "
        fill-opacity="1" fill-rule="nonzero" />
    <path fill="#000000"
        d="M 17.8125 18.230469 L 17.242188 18.347656 C 17.207031 18.351562 17.179688 18.382812 17.175781 18.417969 C 17.148438 18.578125 17.109375 18.734375 17.050781 18.882812 C 17.035156 18.914062 17.046875 18.953125 17.074219 18.976562 L 17.511719 19.359375 L 17.359375 19.625 L 16.804688 19.4375 C 16.769531 19.425781 16.734375 19.4375 16.710938 19.464844 C 16.609375 19.589844 16.492188 19.707031 16.367188 19.808594 C 16.332031 19.835938 16.328125 19.882812 16.351562 19.917969 L 16.53125 20.453125 L 16.269531 20.605469 L 15.882812 20.164062 C 15.859375 20.136719 15.820312 20.128906 15.789062 20.140625 C 15.636719 20.199219 15.476562 20.242188 15.316406 20.265625 C 15.273438 20.273438 15.246094 20.3125 15.25 20.355469 L 15.140625 20.90625 L 14.835938 20.90625 L 14.726562 20.363281 C 14.726562 20.363281 14.726562 20.359375 14.726562 20.355469 C 14.730469 20.3125 14.699219 20.273438 14.65625 20.265625 C 14.496094 20.242188 14.339844 20.199219 14.1875 20.140625 C 14.152344 20.128906 14.113281 20.136719 14.089844 20.164062 L 13.703125 20.605469 L 13.441406 20.453125 L 13.621094 19.925781 C 13.621094 19.921875 13.621094 19.921875 13.625 19.921875 C 13.648438 19.882812 13.640625 19.835938 13.605469 19.808594 C 13.480469 19.707031 13.363281 19.589844 13.261719 19.464844 C 13.238281 19.4375 13.203125 19.425781 13.167969 19.4375 L 12.613281 19.625 L 12.460938 19.359375 L 12.902344 18.976562 C 12.929688 18.953125 12.9375 18.914062 12.925781 18.882812 C 12.867188 18.730469 12.824219 18.574219 12.800781 18.417969 C 12.796875 18.382812 12.769531 18.355469 12.734375 18.347656 L 12.160156 18.230469 L 12.160156 17.929688 L 12.734375 17.8125 C 12.769531 17.804688 12.796875 17.777344 12.800781 17.742188 C 12.824219 17.582031 12.867188 17.425781 12.925781 17.277344 C 12.9375 17.246094 12.929688 17.207031 12.902344 17.183594 L 12.460938 16.796875 L 12.613281 16.535156 L 13.15625 16.714844 C 13.191406 16.738281 13.234375 16.730469 13.261719 16.695312 C 13.363281 16.570312 13.480469 16.453125 13.605469 16.351562 C 13.640625 16.324219 13.644531 16.277344 13.621094 16.238281 L 13.441406 15.707031 L 13.703125 15.554688 L 14.070312 15.96875 C 14.070312 15.972656 14.070312 15.976562 14.074219 15.980469 C 14.09375 16.019531 14.140625 16.035156 14.179688 16.019531 C 14.335938 15.960938 14.496094 15.917969 14.660156 15.894531 C 14.703125 15.886719 14.730469 15.847656 14.726562 15.804688 C 14.726562 15.800781 14.726562 15.800781 14.726562 15.796875 L 14.835938 15.253906 L 15.140625 15.253906 L 15.246094 15.785156 C 15.246094 15.792969 15.242188 15.796875 15.242188 15.804688 C 15.238281 15.847656 15.269531 15.886719 15.316406 15.894531 C 15.476562 15.917969 15.636719 15.960938 15.792969 16.019531 C 15.832031 16.035156 15.878906 16.015625 15.898438 15.976562 L 16.269531 15.554688 L 16.53125 15.707031 L 16.355469 16.230469 C 16.351562 16.230469 16.351562 16.234375 16.347656 16.238281 C 16.324219 16.273438 16.332031 16.324219 16.367188 16.351562 C 16.492188 16.453125 16.609375 16.566406 16.710938 16.695312 C 16.738281 16.726562 16.78125 16.734375 16.816406 16.71875 L 17.359375 16.535156 L 17.511719 16.796875 L 17.070312 17.183594 C 17.046875 17.207031 17.035156 17.242188 17.050781 17.277344 C 17.105469 17.425781 17.148438 17.582031 17.171875 17.742188 C 17.179688 17.777344 17.207031 17.804688 17.242188 17.8125 L 17.8125 17.929688 Z M 17.914062 17.777344 L 17.332031 17.660156 C 17.308594 17.527344 17.273438 17.394531 17.226562 17.269531 L 17.675781 16.878906 C 17.703125 16.851562 17.710938 16.808594 17.691406 16.773438 L 17.472656 16.390625 C 17.453125 16.355469 17.410156 16.339844 17.371094 16.351562 L 16.804688 16.542969 C 16.71875 16.441406 16.625 16.347656 16.523438 16.261719 L 16.714844 15.695312 C 16.726562 15.65625 16.710938 15.613281 16.675781 15.59375 L 16.292969 15.375 C 16.257812 15.351562 16.214844 15.359375 16.1875 15.390625 L 15.792969 15.839844 C 15.667969 15.796875 15.539062 15.761719 15.410156 15.738281 L 15.292969 15.152344 C 15.28125 15.113281 15.25 15.082031 15.207031 15.082031 L 14.765625 15.082031 C 14.726562 15.082031 14.691406 15.113281 14.683594 15.152344 L 14.566406 15.738281 C 14.433594 15.761719 14.304688 15.796875 14.179688 15.839844 L 13.785156 15.390625 C 13.757812 15.359375 13.714844 15.351562 13.679688 15.371094 L 13.296875 15.59375 C 13.261719 15.613281 13.246094 15.65625 13.257812 15.695312 L 13.449219 16.261719 C 13.347656 16.347656 13.253906 16.441406 13.167969 16.542969 L 12.601562 16.351562 C 12.5625 16.339844 12.523438 16.355469 12.5 16.390625 L 12.28125 16.773438 C 12.261719 16.808594 12.269531 16.851562 12.300781 16.878906 L 12.746094 17.273438 C 12.703125 17.394531 12.667969 17.527344 12.644531 17.660156 L 12.058594 17.777344 C 12.019531 17.785156 11.988281 17.816406 11.988281 17.859375 L 11.988281 18.300781 C 11.988281 18.339844 12.019531 18.375 12.058594 18.382812 L 12.644531 18.5 C 12.667969 18.632812 12.699219 18.761719 12.746094 18.886719 L 12.300781 19.28125 C 12.269531 19.304688 12.261719 19.351562 12.28125 19.386719 L 12.5 19.769531 C 12.523438 19.804688 12.5625 19.820312 12.601562 19.808594 L 13.167969 19.617188 C 13.253906 19.71875 13.347656 19.8125 13.449219 19.898438 L 13.257812 20.464844 C 13.246094 20.503906 13.261719 20.542969 13.296875 20.566406 L 13.679688 20.785156 C 13.714844 20.804688 13.757812 20.796875 13.785156 20.769531 L 14.179688 20.320312 C 14.304688 20.363281 14.433594 20.398438 14.566406 20.421875 L 14.683594 21.007812 C 14.691406 21.046875 14.726562 21.078125 14.765625 21.078125 L 15.207031 21.078125 C 15.25 21.078125 15.28125 21.046875 15.292969 21.007812 L 15.410156 20.421875 C 15.539062 20.398438 15.667969 20.363281 15.792969 20.320312 L 16.1875 20.769531 C 16.214844 20.796875 16.257812 20.804688 16.292969 20.785156 L 16.675781 20.566406 C 16.710938 20.542969 16.726562 20.503906 16.714844 20.464844 L 16.523438 19.898438 C 16.625 19.8125 16.71875 19.71875 16.804688 19.617188 L 17.371094 19.808594 C 17.410156 19.820312 17.453125 19.804688 17.472656 19.769531 L 17.691406 19.386719 C 17.710938 19.351562 17.703125 19.304688 17.675781 19.28125 L 17.226562 18.886719 C 17.273438 18.761719 17.308594 18.632812 17.332031 18.5 L 17.914062 18.382812 C 17.953125 18.375 17.984375 18.339844 17.984375 18.300781 L 17.984375 17.859375 C 17.984375 17.816406 17.953125 17.785156 17.914062 17.777344 "
        fill-opacity="1" fill-rule="nonzero" />
    <path fill="#000000"
        d="M 14.988281 17.414062 C 15.355469 17.414062 15.65625 17.714844 15.65625 18.082031 C 15.65625 18.445312 15.355469 18.746094 14.984375 18.746094 C 14.621094 18.746094 14.320312 18.449219 14.320312 18.082031 C 14.320312 17.710938 14.621094 17.414062 14.984375 17.414062 L 14.984375 17.328125 Z M 14.988281 17.246094 L 14.984375 17.246094 C 14.527344 17.246094 14.152344 17.621094 14.152344 18.082031 C 14.152344 18.539062 14.527344 18.914062 14.988281 18.914062 C 15.449219 18.914062 15.824219 18.539062 15.824219 18.082031 C 15.824219 17.621094 15.449219 17.246094 14.988281 17.246094 "
        fill-opacity="1" fill-rule="nonzero" />
    <path fill="#a1b6c7"
        d="M 14.988281 17.070312 C 15.542969 17.074219 15.996094 17.527344 15.996094 18.082031 C 15.996094 18.636719 15.542969 19.089844 14.984375 19.089844 C 14.429688 19.089844 13.976562 18.640625 13.976562 18.082031 C 13.976562 17.523438 14.429688 17.070312 14.984375 17.070312 L 14.984375 16.988281 Z M 14.984375 16.214844 C 13.957031 16.214844 13.121094 17.050781 13.121094 18.082031 C 13.121094 19.109375 13.957031 19.945312 14.984375 19.945312 L 14.988281 19.945312 C 16.015625 19.941406 16.851562 19.109375 16.851562 18.082031 C 16.851562 17.054688 16.015625 16.214844 14.984375 16.214844 "
        fill-opacity="1" fill-rule="nonzero" />
    <path fill="#a1b6c7"
        d="M 5.5625 10.292969 C 5.507812 10.644531 5.453125 11 5.398438 11.351562 C 5.398438 11.351562 5.398438 11.355469 5.398438 11.355469 C 5.398438 11.355469 5.398438 11.359375 5.398438 11.359375 C 5.390625 11.417969 5.367188 11.800781 5.742188 12.246094 C 5.78125 12.289062 5.824219 12.332031 5.875 12.375 C 5.964844 11.832031 6.050781 11.292969 6.136719 10.765625 C 5.882812 10.589844 5.675781 10.421875 5.5625 10.292969 Z M 4.304688 19.410156 C 4.304688 19.410156 4.277344 19.910156 4.621094 20.351562 C 4.683594 19.902344 4.773438 19.304688 4.882812 18.601562 C 4.667969 18.453125 4.464844 18.300781 4.292969 18.152344 Z M 4.429688 20.921875 L 4.625 21.59375 C 4.632812 21.523438 4.648438 21.453125 4.675781 21.386719 L 4.550781 21.0625 C 4.511719 21.015625 4.46875 20.96875 4.429688 20.921875 Z M 4.699219 15.617188 C 4.625 16.035156 4.558594 16.414062 4.5 16.738281 C 4.5 16.898438 4.550781 17.167969 4.804688 17.503906 C 4.863281 17.582031 4.9375 17.65625 5.019531 17.726562 C 5.101562 17.195312 5.191406 16.628906 5.285156 16.035156 C 5.078125 15.898438 4.875 15.757812 4.699219 15.617188 Z M 5.941406 7.546875 C 5.941406 7.542969 5.941406 7.542969 5.941406 7.542969 C 5.890625 7.941406 5.835938 8.351562 5.777344 8.777344 C 5.777344 8.800781 5.773438 8.824219 5.769531 8.847656 C 5.765625 8.964844 5.800781 9.203125 6.09375 9.53125 C 6.148438 9.59375 6.21875 9.660156 6.300781 9.726562 C 6.394531 9.136719 6.484375 8.574219 6.566406 8.058594 C 6.277344 7.863281 6.039062 7.679688 5.941406 7.546875 Z M 6.917969 4.003906 C 6.9375 3.984375 6.960938 3.972656 6.984375 3.957031 C 6.929688 3.9375 6.875 3.921875 6.820312 3.90625 C 6.59375 3.851562 6.332031 3.832031 6.09375 3.875 C 6.09375 3.878906 6.09375 3.878906 6.09375 3.878906 C 6.105469 3.910156 6.117188 3.941406 6.125 3.972656 C 6.125 3.976562 6.128906 3.980469 6.128906 3.984375 C 6.167969 4.113281 6.183594 4.324219 6.183594 4.601562 C 6.1875 5 6.152344 5.539062 6.089844 6.167969 C 6.097656 6.164062 6.101562 6.164062 6.105469 6.160156 C 6.101562 6.171875 6.027344 6.644531 6.34375 6.886719 C 6.34375 6.890625 6.34375 6.890625 6.347656 6.890625 C 6.351562 6.894531 6.359375 6.902344 6.363281 6.90625 C 6.453125 6.96875 6.570312 7.042969 6.710938 7.121094 C 6.882812 6.007812 6.992188 5.226562 7 5.003906 C 7 5 7 5 7 4.996094 C 7 4.992188 7 4.988281 7 4.984375 C 7 4.976562 7 4.96875 7 4.964844 C 6.988281 4.695312 6.628906 4.234375 6.917969 4.003906 Z M 4.976562 13.96875 C 4.976562 13.96875 4.976562 13.96875 4.980469 13.96875 C 4.992188 13.957031 4.824219 14.480469 5.246094 14.8125 C 5.308594 14.867188 5.378906 14.921875 5.457031 14.976562 C 5.542969 14.433594 5.632812 13.878906 5.722656 13.320312 C 5.519531 13.179688 5.324219 13.03125 5.15625 12.890625 C 5.09375 13.261719 5.035156 13.621094 4.976562 13.96875 Z M 12.824219 1.753906 C 12.65625 1.417969 11.152344 1.035156 8.949219 0.554688 C 6.707031 0.0703125 4.496094 0.0273438 4.152344 0.3125 C 4.132812 0.332031 4.109375 0.367188 4.109375 0.378906 C 4.027344 0.730469 5.46875 1.113281 7.867188 1.632812 C 10.261719 2.152344 12.757812 2.191406 12.835938 1.839844 C 12.839844 1.835938 12.835938 1.832031 12.839844 1.828125 C 12.839844 1.808594 12.828125 1.773438 12.824219 1.753906 Z M 11.046875 1.636719 L 9.171875 1.300781 L 8.945312 1.351562 L 8.84375 1.539062 L 7.707031 1.386719 L 7.734375 1.082031 L 5.660156 0.65625 L 5.777344 0.492188 L 7.894531 0.886719 L 8.128906 0.660156 L 9.0625 0.847656 L 8.996094 1.085938 L 9.335938 1.09375 L 11.179688 1.425781 L 11.046875 1.636719 "
        fill-opacity="1" fill-rule="nonzero" />
    <g clip-path="url(#92c86d8f92)">
        <path fill="#768692"
            d="M 6.175781 16.550781 C 6.089844 17.132812 6.03125 17.539062 6.023438 17.664062 C 6.015625 17.769531 5.96875 17.984375 5.902344 18.261719 C 6.285156 18.4375 6.65625 18.566406 6.839844 18.636719 C 6.84375 18.640625 6.84375 18.640625 6.84375 18.640625 L 7.128906 16.929688 C 7.117188 16.933594 7.113281 16.933594 7.113281 16.933594 C 6.945312 16.914062 6.585938 16.765625 6.175781 16.550781 Z M 5.320312 20.890625 C 5.484375 20.964844 5.652344 21.027344 5.824219 21.082031 C 5.824219 21.082031 5.824219 21.085938 5.828125 21.085938 L 6.691406 19.535156 C 6.503906 19.511719 6.121094 19.34375 5.691406 19.101562 C 5.546875 19.703125 5.390625 20.371094 5.320312 20.890625 Z M 4.675781 21.386719 C 4.648438 21.453125 4.632812 21.523438 4.625 21.59375 L 4.429688 20.921875 L 4.859375 22.40625 L 5.054688 22.472656 C 5.054688 22.472656 4.929688 22.140625 4.808594 21.738281 Z M 5.484375 21.703125 L 5.488281 21.699219 C 5.484375 21.699219 5.484375 21.699219 5.484375 21.699219 C 5.484375 21.699219 5.484375 21.703125 5.484375 21.703125 Z M 9.410156 2.523438 L 9.4375 2.546875 C 9.503906 2.71875 9.1875 3.074219 9.074219 3.214844 C 8.945312 3.375 8.785156 3.496094 8.601562 3.59375 C 8.390625 3.710938 8.160156 3.816406 7.9375 3.671875 C 7.714844 3.523438 7.476562 3.191406 7.382812 2.945312 C 7.289062 2.691406 7.238281 2.40625 7.222656 2.132812 C 5.761719 1.8125 4.835938 1.582031 4.300781 1.351562 C 4.769531 1.875 5.804688 3.070312 6.09375 3.878906 C 6.09375 3.878906 6.09375 3.878906 6.09375 3.875 C 6.332031 3.832031 6.59375 3.851562 6.820312 3.90625 C 6.875 3.921875 6.929688 3.9375 6.984375 3.957031 C 7.417969 3.691406 8.261719 3.890625 8.433594 4.023438 C 8.652344 4.195312 8.75 4.3125 8.589844 4.480469 C 7.949219 5.15625 7.703125 7.082031 7.566406 7.566406 C 8.019531 7.789062 8.445312 7.988281 8.601562 8.082031 L 8.773438 7.042969 C 8.773438 7.042969 9.0625 6.1875 9.265625 5.535156 C 9.359375 5.246094 9.734375 4.398438 10.40625 3.847656 C 11.164062 3.222656 12.242188 2.816406 12.445312 2.742188 C 11.800781 2.78125 10.640625 2.695312 9.410156 2.523438 Z M 6.976562 11.296875 C 6.914062 11.71875 6.851562 12.148438 6.785156 12.578125 C 6.769531 12.679688 6.753906 12.78125 6.738281 12.882812 C 7.003906 13.015625 7.265625 13.128906 7.464844 13.210938 C 7.570312 13.253906 7.664062 13.289062 7.730469 13.3125 L 7.984375 11.777344 C 7.972656 11.777344 7.964844 11.78125 7.964844 11.78125 C 7.820312 11.753906 7.417969 11.554688 6.976562 11.296875 Z M 7.121094 10.238281 C 7.539062 10.457031 7.957031 10.640625 8.152344 10.714844 C 8.15625 10.71875 8.160156 10.722656 8.160156 10.722656 L 8.4375 9.054688 C 8.269531 9.015625 7.832031 8.804688 7.363281 8.542969 C 7.292969 9.007812 7.210938 9.59375 7.121094 10.238281 Z M 6.335938 15.472656 C 6.726562 15.660156 7.101562 15.804688 7.300781 15.882812 L 7.5625 14.308594 C 7.390625 14.289062 7.011719 14.117188 6.582031 13.867188 C 6.496094 14.4375 6.410156 14.980469 6.335938 15.472656 Z M 6.128906 3.984375 C 6.128906 3.980469 6.125 3.976562 6.125 3.972656 C 6.125 3.976562 6.128906 3.980469 6.128906 3.984375 C 6.167969 4.113281 6.183594 4.324219 6.183594 4.601562 C 6.183594 4.324219 6.167969 4.113281 6.128906 3.984375 Z M 12.96875 2.585938 C 12.960938 2.613281 12.9375 2.640625 12.898438 2.660156 C 12.9375 2.640625 12.960938 2.613281 12.96875 2.585938 C 12.980469 2.542969 12.992188 2.492188 13.003906 2.445312 C 12.992188 2.492188 12.980469 2.542969 12.96875 2.585938 "
            fill-opacity="1" fill-rule="nonzero" />
    </g>
    <g clip-path="url(#72228168d4)">
        <path fill="#58646d"
            d="M 5.726562 10.339844 C 5.65625 10.300781 5.578125 10.257812 5.496094 10.210938 C 5.507812 10.222656 5.519531 10.238281 5.527344 10.25 C 5.539062 10.265625 5.550781 10.277344 5.5625 10.292969 C 5.675781 10.421875 5.882812 10.589844 6.136719 10.765625 C 6.300781 10.882812 6.484375 11.003906 6.671875 11.117188 C 6.773438 11.179688 6.875 11.238281 6.976562 11.296875 C 7.417969 11.554688 7.820312 11.753906 7.964844 11.78125 C 7.964844 11.78125 7.972656 11.777344 7.984375 11.777344 C 8.109375 11.746094 8.78125 11.585938 8.933594 11.410156 C 8.714844 11.542969 6.492188 10.75 5.726562 10.339844 Z M 8.460938 14.007812 C 8.449219 14.011719 8.398438 14.023438 8.375 14.027344 C 7.929688 14.035156 5.664062 13.21875 5.238281 12.914062 C 5.15625 12.851562 5.066406 12.796875 4.980469 12.742188 C 5.035156 12.789062 5.09375 12.839844 5.15625 12.890625 C 5.324219 13.03125 5.519531 13.179688 5.722656 13.320312 C 5.878906 13.429688 6.042969 13.539062 6.203125 13.640625 C 6.332031 13.71875 6.460938 13.796875 6.582031 13.867188 C 7.011719 14.117188 7.390625 14.289062 7.5625 14.308594 C 7.5625 14.308594 8.210938 14.183594 8.460938 14.003906 Z M 4.414062 15.332031 C 4.496094 15.433594 4.589844 15.53125 4.699219 15.617188 C 4.875 15.757812 5.078125 15.898438 5.285156 16.035156 C 5.457031 16.144531 5.632812 16.25 5.804688 16.351562 C 5.929688 16.421875 6.054688 16.488281 6.175781 16.550781 C 6.585938 16.765625 6.945312 16.914062 7.113281 16.933594 C 7.113281 16.933594 7.117188 16.933594 7.128906 16.929688 C 7.214844 16.90625 7.695312 16.761719 7.964844 16.644531 C 7.339844 16.667969 5.21875 15.804688 4.925781 15.640625 C 4.808594 15.570312 4.601562 15.460938 4.414062 15.332031 Z M 7.371094 19.191406 C 7.371094 19.191406 7.359375 19.191406 7.335938 19.195312 C 6.847656 19.238281 5.332031 18.652344 4.582031 18.292969 C 4.457031 18.230469 4.3125 18.148438 4.175781 18.050781 C 4.214844 18.082031 4.253906 18.117188 4.292969 18.152344 C 4.464844 18.300781 4.667969 18.453125 4.882812 18.601562 C 5.046875 18.714844 5.214844 18.824219 5.386719 18.925781 C 5.488281 18.988281 5.59375 19.046875 5.691406 19.101562 C 6.121094 19.34375 6.503906 19.511719 6.691406 19.535156 C 6.691406 19.535156 6.695312 19.535156 6.695312 19.535156 C 6.695312 19.535156 7.117188 19.324219 7.371094 19.191406 Z M 4.308594 20.769531 C 4.347656 20.820312 4.390625 20.871094 4.429688 20.921875 C 4.46875 20.96875 4.511719 21.015625 4.550781 21.0625 C 4.664062 21.183594 4.777344 21.296875 4.890625 21.390625 C 5.097656 21.5625 5.300781 21.675781 5.484375 21.699219 C 5.484375 21.699219 5.484375 21.699219 5.488281 21.699219 C 5.488281 21.699219 5.789062 21.617188 5.914062 21.523438 L 5.882812 21.523438 C 5.546875 21.542969 4.835938 21.191406 4.308594 20.769531 Z M 9.203125 8.742188 C 8.984375 8.875 6.933594 8.003906 6.28125 7.574219 C 6.144531 7.484375 5.980469 7.359375 5.839844 7.214844 C 5.886719 7.339844 5.925781 7.460938 5.941406 7.542969 C 5.941406 7.542969 5.941406 7.542969 5.941406 7.546875 C 6.039062 7.679688 6.277344 7.863281 6.566406 8.058594 C 6.757812 8.1875 6.972656 8.320312 7.191406 8.445312 C 7.25 8.480469 7.308594 8.511719 7.363281 8.542969 C 7.832031 8.804688 8.269531 9.015625 8.4375 9.054688 C 8.445312 9.058594 8.453125 9.058594 8.457031 9.0625 C 8.457031 9.0625 9.035156 8.9375 9.203125 8.742188 Z M 13.019531 2.242188 C 13.019531 2.238281 13.019531 2.230469 13.019531 2.222656 C 13.015625 2.214844 13.015625 2.203125 13.015625 2.195312 C 13.015625 2.1875 13.011719 2.179688 13.011719 2.171875 C 13.011719 2.164062 13.007812 2.152344 13.007812 2.144531 C 13.003906 2.136719 13.003906 2.128906 13 2.121094 C 13 2.109375 12.996094 2.097656 12.992188 2.089844 C 12.992188 2.082031 12.988281 2.074219 12.988281 2.0625 C 12.984375 2.054688 12.980469 2.042969 12.976562 2.03125 C 12.972656 2.023438 12.96875 2.015625 12.964844 2.003906 C 12.960938 1.992188 12.957031 1.984375 12.953125 1.972656 C 12.949219 1.960938 12.945312 1.953125 12.941406 1.941406 C 12.9375 1.929688 12.929688 1.917969 12.925781 1.90625 C 12.917969 1.898438 12.914062 1.886719 12.910156 1.875 C 12.902344 1.863281 12.894531 1.851562 12.886719 1.839844 C 12.886719 1.832031 12.882812 1.824219 12.878906 1.820312 C 12.871094 1.808594 12.84375 1.753906 12.820312 1.742188 C 12.820312 1.746094 12.824219 1.75 12.824219 1.753906 C 12.828125 1.773438 12.839844 1.808594 12.839844 1.828125 C 12.839844 1.832031 12.839844 1.835938 12.835938 1.839844 C 12.757812 2.191406 10.261719 2.152344 7.867188 1.632812 C 5.46875 1.113281 4.027344 0.730469 4.109375 0.378906 C 4.109375 0.367188 4.132812 0.332031 4.152344 0.3125 C 4.152344 0.3125 4.152344 0.3125 4.15625 0.308594 C 4.101562 0.324219 3.980469 0.464844 3.933594 0.53125 C 3.800781 0.738281 3.835938 1.082031 3.910156 1.136719 C 4.007812 1.210938 4.132812 1.28125 4.300781 1.351562 C 4.835938 1.582031 5.761719 1.8125 7.222656 2.132812 C 7.28125 2.144531 7.339844 2.15625 7.398438 2.167969 C 8.042969 2.308594 8.738281 2.429688 9.410156 2.523438 C 10.640625 2.695312 11.800781 2.78125 12.445312 2.742188 C 12.65625 2.726562 12.8125 2.703125 12.898438 2.660156 C 12.9375 2.640625 12.960938 2.613281 12.96875 2.585938 C 12.980469 2.542969 12.992188 2.492188 13.003906 2.445312 C 13.003906 2.441406 13.003906 2.441406 13.003906 2.441406 C 13.003906 2.429688 13.007812 2.421875 13.007812 2.414062 C 13.007812 2.40625 13.011719 2.402344 13.011719 2.398438 C 13.011719 2.390625 13.011719 2.382812 13.015625 2.375 C 13.015625 2.367188 13.015625 2.363281 13.015625 2.359375 C 13.015625 2.351562 13.019531 2.34375 13.019531 2.332031 C 13.019531 2.328125 13.019531 2.320312 13.019531 2.316406 C 13.019531 2.308594 13.019531 2.296875 13.019531 2.289062 C 13.019531 2.285156 13.019531 2.277344 13.019531 2.269531 C 13.019531 2.261719 13.019531 2.253906 13.019531 2.242188 Z M 8.027344 2.039062 C 8 2.128906 7.273438 2.085938 6.382812 1.863281 C 5.492188 1.640625 4.847656 1.40625 4.871094 1.316406 C 4.898438 1.226562 5.675781 1.195312 6.566406 1.417969 C 7.457031 1.636719 8.050781 1.949219 8.027344 2.039062 "
            fill-opacity="1" fill-rule="nonzero" />
    </g>
    <g clip-path="url(#031f557e10)">
        <path fill="#ffffff"
            d="M 4.550781 21.0625 L 4.675781 21.386719 L 4.808594 21.738281 L 4.824219 21.78125 C 4.824219 21.78125 4.851562 21.628906 4.890625 21.390625 C 4.777344 21.296875 4.664062 21.183594 4.550781 21.0625 Z M 6.566406 8.058594 C 6.484375 8.574219 6.394531 9.136719 6.300781 9.726562 C 6.460938 9.847656 6.660156 9.976562 6.871094 10.097656 C 6.976562 9.558594 7.085938 8.992188 7.191406 8.445312 C 6.972656 8.320312 6.757812 8.1875 6.566406 8.058594 Z M 5.804688 16.351562 C 5.632812 16.25 5.457031 16.144531 5.285156 16.035156 C 5.191406 16.628906 5.101562 17.195312 5.019531 17.726562 C 5.167969 17.855469 5.347656 17.972656 5.539062 18.078125 C 5.542969 18.058594 5.542969 18.042969 5.546875 18.023438 C 5.570312 17.910156 5.679688 17.199219 5.804688 16.351562 Z M 5.015625 20.71875 C 5.140625 20.023438 5.296875 19.210938 5.359375 19.015625 C 5.371094 18.984375 5.378906 18.957031 5.386719 18.925781 C 5.214844 18.824219 5.046875 18.714844 4.882812 18.601562 C 4.773438 19.304688 4.683594 19.902344 4.621094 20.351562 C 4.632812 20.367188 4.640625 20.378906 4.652344 20.394531 C 4.761719 20.523438 4.882812 20.628906 5.015625 20.71875 Z M 6.671875 11.117188 C 6.484375 11.003906 6.300781 10.882812 6.136719 10.765625 C 6.050781 11.292969 5.964844 11.832031 5.875 12.375 C 5.90625 12.40625 5.941406 12.433594 5.980469 12.460938 C 6.097656 12.539062 6.230469 12.617188 6.363281 12.6875 C 6.433594 12.324219 6.542969 11.765625 6.671875 11.117188 Z M 5.722656 13.320312 C 5.632812 13.878906 5.542969 14.433594 5.457031 14.976562 C 5.605469 15.082031 5.78125 15.1875 5.960938 15.285156 C 6.054688 14.652344 6.140625 14.050781 6.203125 13.640625 C 6.042969 13.539062 5.878906 13.429688 5.722656 13.320312 Z M 7 5.003906 C 6.992188 5.226562 6.882812 6.007812 6.710938 7.121094 C 6.90625 7.234375 7.140625 7.355469 7.378906 7.472656 C 7.609375 6.238281 7.78125 5.269531 7.769531 5.171875 C 7.742188 5.003906 7.496094 5.003906 7.308594 4.964844 C 7.1875 4.941406 7 4.957031 7 4.964844 C 7 4.96875 7 4.976562 7 4.984375 C 7 4.988281 7 4.992188 7 4.996094 C 7 5 7 5 7 5.003906 Z M 8.914062 11.324219 C 8.695312 11.460938 6.089844 10.425781 5.746094 10.230469 C 5.425781 10.050781 4.945312 9.734375 4.839844 9.441406 C 4.824219 9.402344 4.824219 9.363281 4.835938 9.328125 C 4.835938 9.328125 4.78125 9.523438 4.796875 9.566406 C 4.882812 9.796875 5.203125 10.03125 5.496094 10.210938 C 5.578125 10.257812 5.65625 10.300781 5.726562 10.339844 C 6.492188 10.75 8.714844 11.542969 8.933594 11.410156 C 8.9375 11.410156 8.9375 11.410156 8.9375 11.410156 Z M 5.246094 12.820312 C 5 12.65625 4.507812 12.316406 4.445312 12.09375 C 4.4375 12.0625 4.4375 12.035156 4.441406 12.003906 C 4.425781 12.046875 4.398438 12.136719 4.425781 12.214844 C 4.5 12.433594 4.734375 12.582031 4.980469 12.742188 C 5.066406 12.796875 5.15625 12.851562 5.238281 12.914062 C 5.664062 13.21875 7.929688 14.035156 8.375 14.027344 C 8.398438 14.023438 8.449219 14.011719 8.460938 14.007812 L 8.460938 14.003906 L 8.46875 13.9375 C 8.25 14.070312 5.859375 13.230469 5.246094 12.820312 Z M 9.203125 8.613281 C 8.238281 8.582031 6.472656 7.546875 6.359375 7.484375 C 6.101562 7.347656 5.703125 7.058594 5.597656 6.765625 C 5.585938 6.734375 5.582031 6.707031 5.578125 6.679688 C 5.578125 6.679688 5.578125 6.683594 5.578125 6.683594 C 5.574219 6.726562 5.574219 6.796875 5.589844 6.839844 C 5.636719 6.972656 5.730469 7.097656 5.839844 7.214844 C 5.980469 7.359375 6.144531 7.484375 6.28125 7.574219 C 6.933594 8.003906 8.984375 8.875 9.203125 8.742188 C 9.203125 8.742188 9.210938 8.660156 9.203125 8.613281 Z M 4.800781 15.460938 C 4.546875 15.316406 4.023438 15.058594 3.972656 14.757812 C 3.972656 14.785156 3.972656 14.8125 3.976562 14.839844 C 3.996094 15.003906 4.195312 15.179688 4.414062 15.332031 C 4.601562 15.460938 4.808594 15.570312 4.925781 15.640625 C 5.21875 15.804688 7.339844 16.667969 7.964844 16.644531 C 8.015625 16.644531 8.058594 16.636719 8.089844 16.621094 C 8.089844 16.621094 8.117188 16.625 8.101562 16.558594 C 7.855469 16.679688 5.117188 15.636719 4.800781 15.460938 Z M 8.097656 16.550781 C 8.097656 16.554688 8.097656 16.554688 8.101562 16.554688 C 8.097656 16.554688 8.097656 16.550781 8.097656 16.550781 Z M 4.613281 18.214844 C 4.199219 18.011719 3.699219 17.609375 3.660156 17.300781 C 3.640625 17.113281 3.714844 16.96875 3.824219 16.863281 C 3.78125 16.894531 3.746094 16.933594 3.710938 16.976562 C 3.648438 17.066406 3.585938 17.230469 3.601562 17.371094 C 3.628906 17.582031 3.890625 17.84375 4.175781 18.050781 C 4.3125 18.148438 4.457031 18.230469 4.582031 18.292969 C 5.332031 18.652344 6.847656 19.238281 7.335938 19.195312 C 7.359375 19.191406 7.371094 19.191406 7.371094 19.191406 L 7.398438 19.128906 C 7.175781 19.257812 5.285156 18.542969 4.613281 18.214844 Z M 3.828125 20.160156 C 3.683594 19.925781 3.652344 19.601562 3.835938 19.453125 C 3.824219 19.460938 3.8125 19.464844 3.800781 19.472656 C 3.589844 19.609375 3.617188 19.953125 3.765625 20.199219 C 3.882812 20.386719 4.078125 20.585938 4.308594 20.769531 C 4.835938 21.191406 5.546875 21.542969 5.882812 21.523438 L 5.917969 21.523438 L 5.941406 21.488281 C 5.453125 21.511719 4.203125 20.78125 3.828125 20.160156 Z M 6.382812 1.863281 C 7.273438 2.085938 8 2.128906 8.027344 2.039062 C 8.050781 1.949219 7.457031 1.636719 6.566406 1.417969 C 5.675781 1.195312 4.898438 1.226562 4.871094 1.316406 C 4.847656 1.40625 5.492188 1.640625 6.382812 1.863281 "
            fill-opacity="1" fill-rule="nonzero" />
    </g>
    <g clip-path="url(#d363104e6b)">
        <path fill="#484c52"
            d="M 5.484375 21.699219 C 5.300781 21.675781 5.097656 21.5625 4.890625 21.390625 C 4.851562 21.628906 4.824219 21.78125 4.824219 21.78125 L 4.808594 21.738281 C 4.929688 22.140625 5.054688 22.472656 5.054688 22.472656 L 5.484375 21.703125 C 5.484375 21.703125 5.484375 21.699219 5.484375 21.699219 Z M 8.160156 10.722656 C 8.160156 10.722656 8.15625 10.71875 8.152344 10.714844 C 7.957031 10.640625 7.539062 10.457031 7.121094 10.238281 C 7.210938 9.59375 7.292969 9.007812 7.363281 8.542969 C 7.308594 8.511719 7.25 8.480469 7.191406 8.445312 C 7.085938 8.992188 6.976562 9.558594 6.871094 10.097656 C 6.660156 9.976562 6.460938 9.847656 6.300781 9.726562 C 6.21875 9.660156 6.148438 9.59375 6.09375 9.53125 C 5.800781 9.203125 5.765625 8.964844 5.769531 8.847656 C 5.769531 8.804688 5.777344 8.78125 5.777344 8.777344 C 5.683594 8.816406 4.921875 9.039062 4.835938 9.328125 C 4.824219 9.363281 4.824219 9.402344 4.839844 9.441406 C 4.945312 9.734375 5.425781 10.050781 5.746094 10.230469 C 6.089844 10.425781 8.695312 11.460938 8.914062 11.324219 C 8.90625 11.320312 8.394531 10.929688 8.160156 10.722656 Z M 9.335938 1.09375 L 8.996094 1.085938 L 9.0625 0.847656 L 8.128906 0.660156 L 7.894531 0.886719 L 5.777344 0.492188 L 5.660156 0.65625 L 7.734375 1.082031 L 7.707031 1.386719 L 8.84375 1.539062 L 8.945312 1.351562 L 9.171875 1.300781 L 11.046875 1.636719 L 11.179688 1.425781 Z M 8.601562 8.082031 C 8.445312 7.988281 8.019531 7.789062 7.566406 7.566406 C 7.703125 7.082031 7.949219 5.15625 8.589844 4.480469 C 8.75 4.3125 8.652344 4.195312 8.433594 4.023438 C 8.261719 3.890625 7.417969 3.691406 6.984375 3.957031 C 6.960938 3.972656 6.9375 3.984375 6.917969 4.003906 C 6.628906 4.234375 6.988281 4.695312 7 4.964844 C 7 4.957031 7.1875 4.941406 7.308594 4.964844 C 7.496094 5.003906 7.742188 5.003906 7.769531 5.171875 C 7.78125 5.269531 7.609375 6.238281 7.378906 7.472656 C 7.140625 7.355469 6.90625 7.234375 6.710938 7.121094 C 6.570312 7.042969 6.453125 6.96875 6.363281 6.90625 C 6.359375 6.902344 6.351562 6.894531 6.347656 6.890625 C 6.34375 6.890625 6.34375 6.890625 6.34375 6.886719 C 6.027344 6.644531 6.101562 6.171875 6.105469 6.160156 C 6.101562 6.164062 6.097656 6.164062 6.089844 6.167969 C 6.003906 6.214844 5.769531 6.3125 5.648438 6.46875 C 5.601562 6.53125 5.570312 6.601562 5.578125 6.683594 C 5.578125 6.683594 5.578125 6.679688 5.578125 6.679688 C 5.582031 6.707031 5.585938 6.734375 5.597656 6.765625 C 5.703125 7.058594 6.101562 7.347656 6.359375 7.484375 C 6.472656 7.546875 8.238281 8.582031 9.203125 8.613281 C 9.195312 8.605469 8.828125 8.285156 8.601562 8.082031 Z M 7.464844 13.210938 C 7.265625 13.128906 7.003906 13.015625 6.738281 12.882812 C 6.753906 12.78125 6.769531 12.679688 6.785156 12.578125 C 6.851562 12.148438 6.914062 11.71875 6.976562 11.296875 C 6.875 11.238281 6.773438 11.179688 6.671875 11.117188 C 6.542969 11.765625 6.433594 12.324219 6.363281 12.6875 C 6.230469 12.617188 6.097656 12.539062 5.980469 12.460938 C 5.941406 12.433594 5.90625 12.40625 5.875 12.375 C 5.824219 12.332031 5.78125 12.289062 5.742188 12.246094 C 5.367188 11.800781 5.390625 11.417969 5.398438 11.359375 C 5.398438 11.355469 5.398438 11.355469 5.398438 11.355469 C 5.398438 11.355469 5.398438 11.351562 5.398438 11.351562 C 5.398438 11.355469 5.394531 11.355469 5.390625 11.359375 C 5.390625 11.355469 5.394531 11.351562 5.394531 11.351562 C 5.367188 11.367188 5.292969 11.398438 5.203125 11.441406 C 4.929688 11.558594 4.484375 11.773438 4.441406 12.003906 C 4.4375 12.035156 4.4375 12.0625 4.445312 12.09375 C 4.507812 12.316406 5 12.65625 5.246094 12.820312 C 5.859375 13.230469 8.25 14.070312 8.46875 13.9375 C 8.46875 13.9375 7.960938 13.519531 7.730469 13.3125 C 7.664062 13.289062 7.570312 13.253906 7.464844 13.210938 Z M 8.097656 16.550781 C 8.035156 16.5 7.535156 16.082031 7.320312 15.890625 C 7.3125 15.886719 7.308594 15.886719 7.300781 15.882812 C 7.101562 15.804688 6.726562 15.660156 6.335938 15.472656 C 6.410156 14.980469 6.496094 14.4375 6.582031 13.867188 C 6.460938 13.796875 6.332031 13.71875 6.203125 13.640625 C 6.140625 14.050781 6.054688 14.652344 5.960938 15.285156 C 5.78125 15.1875 5.605469 15.082031 5.457031 14.976562 C 5.378906 14.921875 5.308594 14.867188 5.246094 14.8125 C 4.824219 14.480469 4.992188 13.957031 4.980469 13.96875 C 4.976562 13.96875 4.976562 13.96875 4.976562 13.96875 C 4.855469 14.035156 3.898438 14.136719 3.96875 14.746094 C 3.96875 14.75 3.972656 14.753906 3.972656 14.757812 C 4.023438 15.058594 4.546875 15.316406 4.800781 15.460938 C 5.117188 15.636719 7.855469 16.679688 8.101562 16.558594 C 8.101562 16.558594 8.105469 16.558594 8.105469 16.558594 C 8.105469 16.558594 8.101562 16.554688 8.101562 16.554688 C 8.097656 16.554688 8.097656 16.554688 8.097656 16.550781 Z M 6.839844 18.636719 C 6.65625 18.566406 6.285156 18.4375 5.902344 18.261719 C 5.96875 17.984375 6.015625 17.769531 6.023438 17.664062 C 6.03125 17.539062 6.089844 17.132812 6.175781 16.550781 C 6.054688 16.488281 5.929688 16.421875 5.804688 16.351562 C 5.679688 17.199219 5.570312 17.910156 5.546875 18.023438 C 5.542969 18.042969 5.542969 18.058594 5.539062 18.078125 C 5.347656 17.972656 5.167969 17.855469 5.019531 17.726562 C 4.9375 17.65625 4.863281 17.582031 4.804688 17.503906 C 4.550781 17.167969 4.5 16.898438 4.5 16.738281 C 4.503906 16.621094 4.53125 16.558594 4.53125 16.558594 C 4.53125 16.558594 4.078125 16.621094 3.824219 16.863281 C 3.714844 16.96875 3.640625 17.113281 3.660156 17.300781 C 3.699219 17.609375 4.199219 18.011719 4.613281 18.214844 C 5.285156 18.542969 7.175781 19.257812 7.398438 19.128906 C 7.398438 19.128906 7.402344 19.128906 7.402344 19.128906 C 7.402344 19.128906 7.070312 18.84375 6.84375 18.640625 C 6.84375 18.640625 6.84375 18.640625 6.839844 18.636719 Z M 9.410156 2.523438 C 8.738281 2.429688 8.042969 2.308594 7.398438 2.167969 C 7.339844 2.15625 7.28125 2.144531 7.222656 2.132812 C 7.238281 2.40625 7.289062 2.691406 7.382812 2.945312 C 7.476562 3.191406 7.714844 3.523438 7.9375 3.671875 C 8.160156 3.816406 8.390625 3.710938 8.601562 3.59375 C 8.785156 3.496094 8.945312 3.375 9.074219 3.214844 C 9.1875 3.074219 9.503906 2.71875 9.4375 2.546875 Z M 5.824219 21.082031 C 5.652344 21.027344 5.484375 20.964844 5.320312 20.890625 C 5.390625 20.371094 5.546875 19.703125 5.691406 19.101562 C 5.59375 19.046875 5.488281 18.988281 5.386719 18.925781 C 5.378906 18.957031 5.371094 18.984375 5.359375 19.015625 C 5.296875 19.210938 5.140625 20.023438 5.015625 20.71875 C 4.882812 20.628906 4.761719 20.523438 4.652344 20.394531 C 4.640625 20.378906 4.632812 20.367188 4.621094 20.351562 C 4.277344 19.910156 4.304688 19.410156 4.304688 19.410156 C 4.289062 19.40625 4.003906 19.339844 3.859375 19.4375 C 3.851562 19.441406 3.84375 19.449219 3.835938 19.453125 C 3.652344 19.601562 3.683594 19.925781 3.828125 20.160156 C 4.203125 20.78125 5.453125 21.511719 5.941406 21.488281 C 5.941406 21.488281 5.871094 21.207031 5.828125 21.085938 C 5.824219 21.085938 5.824219 21.082031 5.824219 21.082031 "
            fill-opacity="1" fill-rule="nonzero" />
    </g>
</svg>