<svg width="29" height="29" viewBox="0 0 29 29" fill="none" xmlns="http://www.w3.org/2000/svg">
    <path
        d="M27 22.8333L25.8476 14.1904C25.6654 12.8239 25.5743 12.1406 25.2489 11.6261C24.9621 11.1728 24.5503 10.8122 24.0631 10.5879C23.5101 10.3333 22.8208 10.3333 21.4421 10.3333H7.55785C6.17922 10.3333 5.48992 10.3333 4.93696 10.5879C4.44974 10.8122 4.03787 11.1728 3.75112 11.6261C3.42569 12.1406 3.3346 12.8239 3.15239 14.1904L2 22.8333M27 22.8333H2M27 22.8333V24.7778C27 25.5557 27 25.9446 26.8486 26.2417C26.7154 26.5031 26.5031 26.7154 26.2417 26.8486C25.9446 27 25.5557 27 24.7778 27H4.22222C3.44437 27 3.05544 27 2.75835 26.8486C2.49701 26.7154 2.28454 26.5031 2.15137 26.2417C2 25.9446 2 25.5557 2 24.7778V22.8333M8.25 14.5V14.5139M12.4167 14.5V14.5139M10.3333 18.6667V18.6806M14.5 18.6667V18.6806M18.6667 18.6667V18.6806M16.5833 14.5V14.5139M20.75 14.5V14.5139M10.3333 10.3333V6.16667M5.88889 6.16667H14.7778C15.1667 6.16667 15.3611 6.16667 15.5097 6.09097C15.6404 6.0244 15.7467 5.91817 15.8132 5.7875C15.8889 5.63894 15.8889 5.44449 15.8889 5.05556V3.11111C15.8889 2.72218 15.8889 2.52772 15.8132 2.37917C15.7467 2.2485 15.6404 2.14226 15.5097 2.07569C15.3611 2 15.1667 2 14.7778 2H5.88889C5.49996 2 5.3055 2 5.15694 2.07569C5.02628 2.14226 4.92004 2.2485 4.85347 2.37917C4.77778 2.52772 4.77778 2.72218 4.77778 3.11111V5.05556C4.77778 5.44449 4.77778 5.63894 4.85347 5.7875C4.92004 5.91817 5.02628 6.0244 5.15694 6.09097C5.3055 6.16667 5.49996 6.16667 5.88889 6.16667Z"
        stroke="#0074B7" stroke-width="3" stroke-linecap="round" stroke-linejoin="round" />
</svg>
    