<svg xmlns="http://www.w3.org/2000/svg" xmlns:xlink="http://www.w3.org/1999/xlink" width="40"
    zoomAndPan="magnify" viewBox="0 0 30 30.000001" height="40" preserveAspectRatio="xMidYMid meet"
    version="1.0">
    <defs>
        <clipPath id="b53a75099a">
            <path d="M 2.859375 1 L 26 1 L 26 29.03125 L 2.859375 29.03125 Z M 2.859375 1 "
                clip-rule="nonzero" />
        </clipPath>
        <clipPath id="7ea5b2ad8b">
            <path d="M 4 0 L 26.8125 0 L 26.8125 28 L 4 28 Z M 4 0 " clip-rule="nonzero" />
        </clipPath>
        <clipPath id="7d094806e2">
            <path d="M 26 2 L 26.8125 2 L 26.8125 3 L 26 3 Z M 26 2 " clip-rule="nonzero" />
        </clipPath>
        <clipPath id="4d73e57436">
            <path d="M 26 4 L 26.8125 4 L 26.8125 5 L 26 5 Z M 26 4 " clip-rule="nonzero" />
        </clipPath>
        <clipPath id="eb0ef0a3e4">
            <path d="M 26 5 L 26.8125 5 L 26.8125 7 L 26 7 Z M 26 5 " clip-rule="nonzero" />
        </clipPath>
        <clipPath id="f4a9c461f8">
            <path d="M 25 11 L 26.8125 11 L 26.8125 13 L 25 13 Z M 25 11 " clip-rule="nonzero" />
        </clipPath>
        <clipPath id="3b2e406919">
            <path d="M 26 3 L 26.8125 3 L 26.8125 4 L 26 4 Z M 26 3 " clip-rule="nonzero" />
        </clipPath>
        <clipPath id="1a04d95db7">
            <path d="M 26 3 L 26.8125 3 L 26.8125 4 L 26 4 Z M 26 3 " clip-rule="nonzero" />
        </clipPath>
        <clipPath id="232fa31657">
            <path d="M 26 3 L 26.8125 3 L 26.8125 4 L 26 4 Z M 26 3 " clip-rule="nonzero" />
        </clipPath>
        <clipPath id="451d509f37">
            <path d="M 25 4 L 26.8125 4 L 26.8125 5 L 25 5 Z M 25 4 " clip-rule="nonzero" />
        </clipPath>
        <clipPath id="f4c3220e39">
            <path d="M 25 4 L 26.8125 4 L 26.8125 6 L 25 6 Z M 25 4 " clip-rule="nonzero" />
        </clipPath>
        <clipPath id="c56ee92f93">
            <path d="M 25 11 L 26.8125 11 L 26.8125 12 L 25 12 Z M 25 11 " clip-rule="nonzero" />
        </clipPath>
        <clipPath id="473701db7c">
            <path d="M 25 1 L 26.8125 1 L 26.8125 2 L 25 2 Z M 25 1 " clip-rule="nonzero" />
        </clipPath>
        <clipPath id="ba0cff67db">
            <path d="M 25 6 L 26.8125 6 L 26.8125 8 L 25 8 Z M 25 6 " clip-rule="nonzero" />
        </clipPath>
        <clipPath id="c4379dd7c9">
            <path d="M 26 7 L 26.8125 7 L 26.8125 8 L 26 8 Z M 26 7 " clip-rule="nonzero" />
        </clipPath>
        <clipPath id="12df81bf56">
            <path d="M 26 12 L 26.8125 12 L 26.8125 13 L 26 13 Z M 26 12 " clip-rule="nonzero" />
        </clipPath>
        <clipPath id="798bad8da6">
            <path d="M 26 12 L 26.8125 12 L 26.8125 14 L 26 14 Z M 26 12 " clip-rule="nonzero" />
        </clipPath>
        <clipPath id="9c2b010b86">
            <path d="M 25 8 L 26.8125 8 L 26.8125 10 L 25 10 Z M 25 8 " clip-rule="nonzero" />
        </clipPath>
        <clipPath id="466dcf6034">
            <path d="M 25 7 L 26.8125 7 L 26.8125 9 L 25 9 Z M 25 7 " clip-rule="nonzero" />
        </clipPath>
        <clipPath id="5d661989e6">
            <path d="M 26 9 L 26.8125 9 L 26.8125 10 L 26 10 Z M 26 9 " clip-rule="nonzero" />
        </clipPath>
        <clipPath id="a0e6587fbb">
            <path d="M 26 10 L 26.8125 10 L 26.8125 12 L 26 12 Z M 26 10 " clip-rule="nonzero" />
        </clipPath>
        <clipPath id="18aac23eee">
            <path d="M 26 15 L 26.8125 15 L 26.8125 17 L 26 17 Z M 26 15 " clip-rule="nonzero" />
        </clipPath>
        <clipPath id="bcd419b4d8">
            <path d="M 26 17 L 26.8125 17 L 26.8125 18 L 26 18 Z M 26 17 " clip-rule="nonzero" />
        </clipPath>
        <clipPath id="e096cb79f3">
            <path d="M 26 19 L 26.8125 19 L 26.8125 20 L 26 20 Z M 26 19 " clip-rule="nonzero" />
        </clipPath>
        <clipPath id="ad90eb7150">
            <path d="M 25 25 L 26.8125 25 L 26.8125 26 L 25 26 Z M 25 25 " clip-rule="nonzero" />
        </clipPath>
        <clipPath id="1f82788465">
            <path d="M 26 16 L 26.8125 16 L 26.8125 17 L 26 17 Z M 26 16 " clip-rule="nonzero" />
        </clipPath>
        <clipPath id="1bc792acf3">
            <path d="M 26 17 L 26.8125 17 L 26.8125 18 L 26 18 Z M 26 17 " clip-rule="nonzero" />
        </clipPath>
        <clipPath id="894bb513b4">
            <path d="M 26 16 L 26.8125 16 L 26.8125 17 L 26 17 Z M 26 16 " clip-rule="nonzero" />
        </clipPath>
        <clipPath id="635de55e50">
            <path d="M 25 17 L 26.8125 17 L 26.8125 18 L 25 18 Z M 25 17 " clip-rule="nonzero" />
        </clipPath>
        <clipPath id="09ee1b116a">
            <path d="M 25 18 L 26.8125 18 L 26.8125 19 L 25 19 Z M 25 18 " clip-rule="nonzero" />
        </clipPath>
        <clipPath id="962e8039bd">
            <path d="M 25 24 L 26.8125 24 L 26.8125 25 L 25 25 Z M 25 24 " clip-rule="nonzero" />
        </clipPath>
        <clipPath id="dc09155840">
            <path d="M 25 14 L 26.8125 14 L 26.8125 16 L 25 16 Z M 25 14 " clip-rule="nonzero" />
        </clipPath>
        <clipPath id="b4e5437636">
            <path d="M 25 20 L 26.8125 20 L 26.8125 21 L 25 21 Z M 25 20 " clip-rule="nonzero" />
        </clipPath>
        <clipPath id="3bc135a169">
            <path d="M 26 20 L 26.8125 20 L 26.8125 21 L 26 21 Z M 26 20 " clip-rule="nonzero" />
        </clipPath>
        <clipPath id="5a09da0ab1">
            <path d="M 26 25 L 26.8125 25 L 26.8125 26 L 26 26 Z M 26 25 " clip-rule="nonzero" />
        </clipPath>
        <clipPath id="3ebf05ed44">
            <path d="M 26 26 L 26.8125 26 L 26.8125 27 L 26 27 Z M 26 26 " clip-rule="nonzero" />
        </clipPath>
        <clipPath id="e5bbb7e2eb">
            <path d="M 25 21 L 26.8125 21 L 26.8125 23 L 25 23 Z M 25 21 " clip-rule="nonzero" />
        </clipPath>
        <clipPath id="e18d319c06">
            <path d="M 25 21 L 26.8125 21 L 26.8125 22 L 25 22 Z M 25 21 " clip-rule="nonzero" />
        </clipPath>
        <clipPath id="75937444c0">
            <path d="M 26 22 L 26.8125 22 L 26.8125 23 L 26 23 Z M 26 22 " clip-rule="nonzero" />
        </clipPath>
        <clipPath id="c994183129">
            <path d="M 26 24 L 26.8125 24 L 26.8125 25 L 26 25 Z M 26 24 " clip-rule="nonzero" />
        </clipPath>
    </defs>
    <g clip-path="url(#b53a75099a)">
        <path fill="#fcd4a7"
            d="M 2.863281 1.589844 L 2.863281 29.015625 L 25.316406 29.015625 L 25.316406 1.589844 L 2.863281 1.589844 "
            fill-opacity="1" fill-rule="nonzero" />
    </g>
    <g clip-path="url(#7ea5b2ad8b)">
        <path fill="#fde5c9"
            d="M 11.085938 0.015625 L 11.085938 8.234375 L 4.359375 8.234375 L 4.359375 27.441406 L 26.8125 27.441406 L 26.8125 0.015625 L 11.085938 0.015625 "
            fill-opacity="1" fill-rule="nonzero" />
    </g>
    <path fill="#a28461"
        d="M 25.65625 8.386719 L 25.652344 8.375 C 25.457031 8.292969 25.261719 8.207031 25.078125 8.117188 C 24.933594 8.042969 24.746094 8.148438 24.890625 8.222656 C 25.132812 8.34375 25.390625 8.449219 25.648438 8.558594 C 25.699219 8.578125 25.75 8.578125 25.785156 8.566406 C 25.734375 8.507812 25.691406 8.449219 25.65625 8.386719 "
        fill-opacity="1" fill-rule="nonzero" />
    <g clip-path="url(#7d094806e2)">
        <path fill="#a28461"
            d="M 26.121094 2.550781 C 26.3125 2.59375 26.496094 2.679688 26.636719 2.777344 L 26.636719 2.5625 C 26.503906 2.496094 26.355469 2.4375 26.203125 2.398438 C 26.066406 2.367188 25.964844 2.511719 26.121094 2.550781 "
            fill-opacity="1" fill-rule="nonzero" />
    </g>
    <path fill="#a28461"
        d="M 25.652344 2.335938 C 25.640625 2.398438 25.933594 2.398438 25.941406 2.339844 C 25.949219 2.277344 25.660156 2.277344 25.652344 2.335938 "
        fill-opacity="1" fill-rule="nonzero" />
    <path fill="#a28461"
        d="M 23 5.875 C 23.078125 5.878906 23.152344 5.886719 23.230469 5.894531 C 23.222656 5.886719 23.210938 5.878906 23.203125 5.871094 C 23.179688 5.855469 23.164062 5.835938 23.15625 5.816406 L 23.703125 5.9375 C 23.699219 5.953125 23.691406 5.964844 23.679688 5.976562 C 23.910156 6.03125 24.132812 6.105469 24.355469 6.195312 L 24.136719 6.144531 C 24.0625 6.128906 23.988281 6.136719 23.941406 6.160156 C 23.914062 6.175781 23.886719 6.222656 23.960938 6.238281 L 24.242188 6.300781 C 24.316406 6.320312 24.390625 6.3125 24.4375 6.285156 C 24.453125 6.277344 24.46875 6.257812 24.464844 6.242188 C 24.488281 6.25 24.507812 6.261719 24.53125 6.269531 C 24.648438 6.324219 24.824219 6.214844 24.71875 6.167969 C 24.195312 5.933594 23.65625 5.773438 23.085938 5.738281 C 22.976562 5.730469 22.851562 5.863281 23 5.875 "
        fill-opacity="1" fill-rule="nonzero" />
    <g clip-path="url(#4d73e57436)">
        <path fill="#a28461"
            d="M 26.617188 4.359375 L 26.613281 4.410156 C 26.609375 4.429688 26.617188 4.457031 26.636719 4.476562 L 26.636719 4.332031 C 26.625 4.339844 26.621094 4.347656 26.617188 4.359375 "
            fill-opacity="1" fill-rule="nonzero" />
    </g>
    <path fill="#a28461"
        d="M 24.015625 9.785156 C 23.957031 9.789062 23.871094 9.800781 23.875 9.84375 C 23.878906 9.886719 23.980469 9.898438 24.027344 9.898438 C 24.15625 9.894531 24.296875 9.914062 24.429688 9.921875 C 24.417969 9.929688 24.410156 9.9375 24.40625 9.945312 C 24.394531 9.980469 24.402344 10.03125 24.449219 10.070312 C 24.535156 10.140625 24.621094 10.21875 24.757812 10.253906 C 24.820312 10.269531 24.824219 10.195312 24.824219 10.175781 C 24.820312 10.144531 24.800781 10.09375 24.734375 10.078125 C 24.640625 10.050781 24.566406 9.976562 24.511719 9.929688 L 24.503906 9.925781 C 24.535156 9.925781 24.570312 9.925781 24.601562 9.925781 C 24.660156 9.925781 24.742188 9.910156 24.738281 9.867188 C 24.734375 9.828125 24.636719 9.8125 24.589844 9.8125 C 24.402344 9.816406 24.199219 9.78125 24.015625 9.785156 "
        fill-opacity="1" fill-rule="nonzero" />
    <path fill="#a28461"
        d="M 24.976562 7.464844 C 24.984375 7.417969 24.703125 7.421875 24.695312 7.472656 C 24.6875 7.519531 24.972656 7.511719 24.976562 7.464844 "
        fill-opacity="1" fill-rule="nonzero" />
    <g clip-path="url(#eb0ef0a3e4)">
        <path fill="#a28461"
            d="M 26.578125 6.0625 C 26.585938 6.015625 26.59375 5.96875 26.597656 5.917969 C 26.589844 5.917969 26.578125 5.921875 26.574219 5.921875 C 26.539062 5.925781 26.507812 5.929688 26.476562 5.9375 C 26.449219 5.941406 26.417969 5.949219 26.390625 5.957031 L 26.359375 5.96875 C 26.4375 5.988281 26.457031 6.042969 26.539062 6.0625 C 26.550781 6.066406 26.566406 6.0625 26.578125 6.0625 "
            fill-opacity="1" fill-rule="nonzero" />
    </g>
    <path fill="#a28461"
        d="M 25.597656 10.640625 L 25.878906 10.703125 C 26.007812 10.734375 25.929688 10.550781 25.816406 10.527344 L 25.535156 10.460938 C 25.40625 10.433594 25.484375 10.613281 25.597656 10.640625 "
        fill-opacity="1" fill-rule="nonzero" />
    <path fill="#a28461"
        d="M 24.914062 0.726562 C 24.792969 0.917969 24.839844 1.144531 25.164062 1.355469 C 25.300781 1.445312 25.417969 1.308594 25.304688 1.238281 C 25.082031 1.09375 25.039062 0.960938 25.125 0.824219 C 25.175781 0.742188 24.972656 0.628906 24.914062 0.726562 "
        fill-opacity="1" fill-rule="nonzero" />
    <path fill="#a28461"
        d="M 25.628906 4.457031 C 25.75 4.558594 25.851562 4.429688 25.765625 4.359375 C 25.691406 4.296875 25.632812 4.246094 25.640625 4.179688 C 25.640625 4.148438 25.609375 4.085938 25.535156 4.074219 C 25.460938 4.0625 25.441406 4.113281 25.441406 4.144531 C 25.429688 4.25 25.503906 4.351562 25.628906 4.457031 "
        fill-opacity="1" fill-rule="nonzero" />
    <path fill="#a28461"
        d="M 24.945312 11.789062 C 24.417969 11.515625 23.886719 11.238281 23.429688 10.921875 C 23.378906 10.886719 23.152344 10.945312 23.148438 10.941406 C 23.605469 11.257812 24.132812 11.535156 24.664062 11.808594 C 24.734375 11.847656 24.925781 11.777344 24.945312 11.789062 "
        fill-opacity="1" fill-rule="nonzero" />
    <g clip-path="url(#f4a9c461f8)">
        <path fill="#a28461"
            d="M 26.082031 12.191406 C 26.109375 12.226562 26.136719 12.1875 26.144531 12.171875 C 26.160156 12.144531 26.175781 12.09375 26.152344 12.054688 C 26.058594 11.917969 25.902344 11.785156 25.703125 11.679688 C 25.6875 11.671875 25.59375 11.804688 25.671875 11.847656 C 25.847656 11.941406 26 12.066406 26.082031 12.191406 "
            fill-opacity="1" fill-rule="nonzero" />
    </g>
    <g clip-path="url(#3b2e406919)">
        <path fill="#a28461"
            d="M 26.636719 3.503906 L 26.636719 3.472656 C 26.632812 3.484375 26.632812 3.492188 26.636719 3.503906 "
            fill-opacity="1" fill-rule="nonzero" />
    </g>
    <path fill="#a28461"
        d="M 25.320312 9.492188 C 25.363281 9.46875 25.371094 9.425781 25.375 9.386719 C 25.378906 9.347656 25.308594 9.328125 25.253906 9.332031 C 25.191406 9.332031 25.113281 9.351562 25.105469 9.390625 L 25.101562 9.414062 C 25.070312 9.417969 25.042969 9.429688 25.023438 9.441406 C 24.996094 9.460938 24.980469 9.507812 25.054688 9.523438 C 25.167969 9.542969 25.257812 9.53125 25.320312 9.492188 "
        fill-opacity="1" fill-rule="nonzero" />
    <g clip-path="url(#1a04d95db7)">
        <path fill="#a28461"
            d="M 26.3125 3.886719 L 26.109375 3.945312 C 26.097656 3.949219 26.074219 3.957031 26.082031 3.96875 C 26.089844 3.980469 26.121094 3.988281 26.136719 3.992188 C 26.207031 4.003906 26.289062 4.003906 26.34375 3.988281 L 26.542969 3.929688 C 26.558594 3.925781 26.582031 3.917969 26.574219 3.902344 C 26.566406 3.890625 26.535156 3.886719 26.515625 3.882812 C 26.445312 3.871094 26.363281 3.871094 26.3125 3.886719 "
            fill-opacity="1" fill-rule="nonzero" />
    </g>
    <path fill="#a28461"
        d="M 25.347656 0.71875 C 25.328125 0.847656 25.664062 1.078125 25.691406 0.894531 C 25.707031 0.765625 25.375 0.535156 25.347656 0.71875 "
        fill-opacity="1" fill-rule="nonzero" />
    <path fill="#a28461"
        d="M 23.871094 3.210938 C 23.847656 3.375 24.230469 3.269531 24.242188 3.164062 C 24.265625 3 23.886719 3.109375 23.871094 3.210938 "
        fill-opacity="1" fill-rule="nonzero" />
    <g clip-path="url(#232fa31657)">
        <path fill="#a28461"
            d="M 26.429688 3.378906 C 26.421875 3.445312 26.53125 3.449219 26.636719 3.425781 L 26.636719 3.269531 C 26.539062 3.289062 26.4375 3.335938 26.429688 3.378906 "
            fill-opacity="1" fill-rule="nonzero" />
    </g>
    <g clip-path="url(#451d509f37)">
        <path fill="#a28461"
            d="M 25.792969 4.296875 C 25.773438 4.457031 26.15625 4.609375 26.183594 4.425781 C 26.207031 4.265625 25.820312 4.113281 25.792969 4.296875 "
            fill-opacity="1" fill-rule="nonzero" />
    </g>
    <g clip-path="url(#f4c3220e39)">
        <path fill="#a28461"
            d="M 26.3125 4.917969 C 26.25 4.867188 26.1875 4.839844 26.09375 4.820312 C 25.929688 4.78125 25.789062 5.023438 25.882812 5.046875 C 25.949219 5.058594 26.019531 5.078125 26.066406 5.117188 C 26.132812 5.167969 26.21875 5.105469 26.246094 5.082031 C 26.277344 5.058594 26.304688 5.027344 26.316406 4.992188 C 26.324219 4.976562 26.339844 4.9375 26.3125 4.917969 "
            fill-opacity="1" fill-rule="nonzero" />
    </g>
    <path fill="#a28461"
        d="M 24.585938 11.203125 C 24.589844 11.183594 24.25 11.257812 24.238281 11.339844 C 24.234375 11.359375 24.574219 11.28125 24.585938 11.203125 "
        fill-opacity="1" fill-rule="nonzero" />
    <path fill="#a28461"
        d="M 24.714844 10.855469 C 24.808594 10.890625 24.878906 10.867188 24.914062 10.824219 C 25.039062 10.847656 25.089844 10.765625 25.085938 10.710938 C 25.082031 10.648438 25.019531 10.558594 24.894531 10.535156 C 24.71875 10.5 24.59375 10.570312 24.570312 10.65625 C 24.554688 10.714844 24.589844 10.808594 24.714844 10.855469 "
        fill-opacity="1" fill-rule="nonzero" />
    <g clip-path="url(#c56ee92f93)">
        <path fill="#a28461"
            d="M 26.074219 11.332031 C 26.082031 11.316406 26.117188 11.199219 26.019531 11.203125 C 25.910156 11.207031 25.816406 11.195312 25.699219 11.167969 C 25.535156 11.128906 25.417969 11.382812 25.523438 11.40625 C 25.660156 11.4375 25.777344 11.457031 25.902344 11.453125 C 26 11.449219 26.050781 11.378906 26.074219 11.332031 "
            fill-opacity="1" fill-rule="nonzero" />
    </g>
    <g clip-path="url(#473701db7c)">
        <path fill="#a28461"
            d="M 25.71875 1.542969 C 25.730469 1.550781 25.738281 1.554688 25.746094 1.5625 C 25.78125 1.59375 25.8125 1.621094 25.847656 1.648438 C 25.933594 1.71875 26.082031 1.710938 26.152344 1.675781 C 26.167969 1.667969 26.183594 1.65625 26.195312 1.644531 C 26.207031 1.632812 26.214844 1.621094 26.21875 1.605469 L 25.675781 1.484375 C 25.683594 1.503906 25.695312 1.523438 25.71875 1.542969 "
            fill-opacity="1" fill-rule="nonzero" />
    </g>
    <path fill="#a28461"
        d="M 25.445312 2.972656 L 25.167969 2.90625 C 25.148438 2.902344 25.128906 2.933594 25.125 2.9375 C 25.101562 2.964844 25.085938 2.996094 25.070312 3.023438 C 25.066406 3.035156 25.011719 3.160156 25.054688 3.167969 L 25.328125 3.230469 C 25.351562 3.234375 25.371094 3.207031 25.375 3.203125 C 25.398438 3.175781 25.414062 3.144531 25.429688 3.113281 C 25.433594 3.105469 25.488281 2.980469 25.445312 2.972656 "
        fill-opacity="1" fill-rule="nonzero" />
    <path fill="#a28461"
        d="M 24.746094 4.871094 C 24.6875 4.921875 24.730469 5.015625 24.808594 5.078125 C 24.851562 5.113281 24.894531 5.148438 24.9375 5.1875 C 25 5.242188 25.125 5.285156 25.1875 5.238281 C 25.246094 5.1875 25.199219 5.09375 25.121094 5.027344 C 25.082031 4.992188 25.039062 4.957031 24.996094 4.921875 C 24.929688 4.867188 24.804688 4.820312 24.746094 4.871094 "
        fill-opacity="1" fill-rule="nonzero" />
    <path fill="#a28461"
        d="M 25.503906 6.746094 C 25.523438 6.613281 25.273438 6.449219 25.246094 6.636719 C 25.226562 6.769531 25.476562 6.933594 25.503906 6.746094 "
        fill-opacity="1" fill-rule="nonzero" />
    <g clip-path="url(#ba0cff67db)">
        <path fill="#a28461"
            d="M 25.957031 6.96875 C 25.953125 6.972656 25.753906 7.007812 25.820312 7.023438 L 26.261719 7.121094 C 26.277344 7.089844 26.3125 7.0625 26.371094 7.078125 L 26.636719 7.136719 L 26.636719 7.058594 L 26.265625 6.976562 C 26.160156 6.949219 26.046875 6.960938 25.957031 6.96875 "
            fill-opacity="1" fill-rule="nonzero" />
    </g>
    <g clip-path="url(#c4379dd7c9)">
        <path fill="#a28461"
            d="M 26.261719 7.121094 C 26.246094 7.148438 26.242188 7.179688 26.242188 7.199219 C 26.246094 7.246094 26.273438 7.34375 26.382812 7.367188 L 26.636719 7.425781 L 26.636719 7.136719 L 26.371094 7.078125 C 26.3125 7.0625 26.277344 7.089844 26.261719 7.121094 "
            fill-opacity="1" fill-rule="nonzero" />
    </g>
    <path fill="#a28461"
        d="M 25.007812 12.710938 C 25.019531 12.644531 24.894531 12.605469 24.800781 12.601562 C 24.546875 12.59375 24.320312 12.621094 24.09375 12.652344 C 24 12.664062 23.875 12.699219 23.90625 12.773438 C 23.933594 12.84375 24.089844 12.859375 24.167969 12.851562 C 24.359375 12.828125 24.546875 12.800781 24.757812 12.808594 C 24.871094 12.8125 24.992188 12.777344 25.007812 12.710938 "
        fill-opacity="1" fill-rule="nonzero" />
    <path fill="#a28461"
        d="M 25.5 13.722656 C 25.585938 13.742188 25.71875 13.707031 25.78125 13.691406 C 25.792969 13.6875 25.960938 13.640625 25.898438 13.628906 C 25.6875 13.578125 25.492188 13.5 25.28125 13.449219 C 25.195312 13.425781 25.0625 13.464844 25 13.480469 C 24.988281 13.484375 24.820312 13.527344 24.882812 13.542969 C 25.09375 13.59375 25.289062 13.671875 25.5 13.722656 "
        fill-opacity="1" fill-rule="nonzero" />
    <path fill="#a28461"
        d="M 23.535156 1.835938 C 23.519531 1.949219 23.894531 1.832031 23.90625 1.75 C 23.921875 1.636719 23.546875 1.753906 23.535156 1.835938 "
        fill-opacity="1" fill-rule="nonzero" />
    <path fill="#a28461"
        d="M 24.328125 0.363281 C 24.339844 0.273438 23.886719 0.304688 23.871094 0.398438 C 23.859375 0.488281 24.3125 0.457031 24.328125 0.363281 "
        fill-opacity="1" fill-rule="nonzero" />
    <path fill="#a28461"
        d="M 25.800781 5.78125 C 25.789062 5.882812 25.894531 6.074219 25.921875 5.878906 C 25.9375 5.777344 25.828125 5.585938 25.800781 5.78125 "
        fill-opacity="1" fill-rule="nonzero" />
    <path fill="#a28461"
        d="M 24.234375 13.105469 C 24.257812 12.9375 23.832031 12.78125 23.804688 12.964844 C 23.78125 13.132812 24.210938 13.285156 24.234375 13.105469 "
        fill-opacity="1" fill-rule="nonzero" />
    <path fill="#a28461"
        d="M 25.5625 13.363281 C 25.578125 13.246094 25.085938 13.242188 25.070312 13.347656 C 25.054688 13.464844 25.546875 13.472656 25.5625 13.363281 "
        fill-opacity="1" fill-rule="nonzero" />
    <g clip-path="url(#12df81bf56)">
        <path fill="#a28461"
            d="M 26.636719 12.308594 L 26.636719 12.128906 C 26.5625 12.15625 26.574219 12.253906 26.636719 12.308594 "
            fill-opacity="1" fill-rule="nonzero" />
    </g>
    <g clip-path="url(#798bad8da6)">
        <path fill="#a28461"
            d="M 26.636719 12.714844 C 26.613281 12.710938 26.585938 12.707031 26.5625 12.703125 C 26.460938 12.683594 26.441406 12.761719 26.449219 12.800781 C 26.464844 12.921875 26.535156 13.035156 26.636719 13.148438 L 26.636719 12.714844 "
            fill-opacity="1" fill-rule="nonzero" />
    </g>
    <g clip-path="url(#9c2b010b86)">
        <path fill="#a28461"
            d="M 26.636719 8.738281 L 26.636719 8.511719 C 26.359375 8.417969 26.078125 8.335938 25.792969 8.257812 C 25.664062 8.226562 25.628906 8.308594 25.652344 8.375 L 25.65625 8.386719 C 25.691406 8.449219 25.734375 8.507812 25.785156 8.566406 C 25.800781 8.578125 25.8125 8.59375 25.824219 8.605469 C 25.796875 8.609375 25.773438 8.617188 25.757812 8.628906 C 25.714844 8.660156 25.714844 8.707031 25.769531 8.753906 C 25.835938 8.8125 25.933594 8.859375 26.03125 8.894531 C 26.144531 8.945312 26.269531 8.984375 26.382812 9.03125 C 26.386719 9.035156 26.394531 9.027344 26.402344 9.011719 C 26.476562 9.054688 26.554688 9.09375 26.636719 9.132812 L 26.636719 8.890625 C 26.511719 8.828125 26.386719 8.761719 26.273438 8.691406 C 26.28125 8.675781 26.289062 8.648438 26.292969 8.628906 C 26.40625 8.664062 26.523438 8.699219 26.636719 8.738281 "
            fill-opacity="1" fill-rule="nonzero" />
    </g>
    <g clip-path="url(#466dcf6034)">
        <path fill="#a28461"
            d="M 26.234375 7.910156 L 26.253906 7.929688 C 26.382812 8.03125 26.507812 8.132812 26.636719 8.234375 L 26.636719 7.972656 L 25.984375 7.824219 C 26.066406 7.855469 26.152344 7.882812 26.234375 7.910156 "
            fill-opacity="1" fill-rule="nonzero" />
    </g>
    <g clip-path="url(#5d661989e6)">
        <path fill="#a28461"
            d="M 26.597656 9.285156 C 26.609375 9.308594 26.621094 9.332031 26.636719 9.351562 L 26.636719 9.167969 C 26.578125 9.191406 26.578125 9.242188 26.597656 9.285156 "
            fill-opacity="1" fill-rule="nonzero" />
    </g>
    <g clip-path="url(#a0e6587fbb)">
        <path fill="#a28461"
            d="M 26.601562 11.03125 C 26.613281 11.027344 26.621094 11.019531 26.621094 11.015625 L 26.636719 11.027344 L 26.636719 10.734375 C 26.5625 10.707031 26.492188 10.683594 26.421875 10.664062 C 26.28125 10.625 26.304688 10.746094 26.355469 10.792969 C 26.429688 10.863281 26.515625 10.933594 26.609375 11.003906 C 26.589844 11 26.554688 11 26.535156 11.011719 C 26.425781 11.054688 26.28125 11.042969 26.128906 11.011719 C 26.085938 11 26.003906 11.042969 26.039062 11.050781 C 26.261719 11.097656 26.449219 11.097656 26.601562 11.03125 "
            fill-opacity="1" fill-rule="nonzero" />
    </g>
    <path fill="#a28461"
        d="M 25.597656 12.570312 C 25.625 12.382812 25.273438 12.394531 25.25 12.542969 C 25.226562 12.730469 25.578125 12.71875 25.597656 12.570312 "
        fill-opacity="1" fill-rule="nonzero" />
    <path fill="#a28461"
        d="M 25.65625 21.804688 L 25.652344 21.792969 C 25.457031 21.710938 25.261719 21.628906 25.078125 21.535156 C 24.933594 21.460938 24.746094 21.566406 24.890625 21.640625 C 25.132812 21.761719 25.390625 21.867188 25.648438 21.976562 C 25.699219 22 25.75 21.996094 25.785156 21.984375 C 25.734375 21.925781 25.691406 21.867188 25.65625 21.804688 "
        fill-opacity="1" fill-rule="nonzero" />
    <g clip-path="url(#18aac23eee)">
        <path fill="#a28461"
            d="M 26.121094 15.96875 C 26.3125 16.015625 26.496094 16.097656 26.636719 16.195312 L 26.636719 15.980469 C 26.503906 15.914062 26.355469 15.855469 26.203125 15.820312 C 26.066406 15.785156 25.964844 15.929688 26.121094 15.96875 "
            fill-opacity="1" fill-rule="nonzero" />
    </g>
    <path fill="#a28461"
        d="M 25.652344 15.753906 C 25.640625 15.816406 25.933594 15.816406 25.941406 15.757812 C 25.949219 15.695312 25.660156 15.695312 25.652344 15.753906 "
        fill-opacity="1" fill-rule="nonzero" />
    <path fill="#a28461"
        d="M 23 19.292969 C 23.078125 19.296875 23.152344 19.304688 23.230469 19.3125 C 23.222656 19.308594 23.210938 19.300781 23.203125 19.292969 C 23.179688 19.273438 23.164062 19.253906 23.15625 19.234375 L 23.703125 19.359375 C 23.699219 19.371094 23.691406 19.382812 23.679688 19.394531 C 23.910156 19.449219 24.132812 19.523438 24.355469 19.613281 L 24.136719 19.5625 C 24.0625 19.546875 23.988281 19.554688 23.941406 19.578125 C 23.914062 19.59375 23.886719 19.640625 23.960938 19.65625 L 24.242188 19.71875 C 24.316406 19.738281 24.390625 19.730469 24.4375 19.703125 C 24.453125 19.695312 24.46875 19.675781 24.464844 19.660156 C 24.488281 19.667969 24.507812 19.679688 24.53125 19.6875 C 24.648438 19.742188 24.824219 19.632812 24.71875 19.585938 C 24.195312 19.351562 23.65625 19.191406 23.085938 19.15625 C 22.976562 19.148438 22.851562 19.28125 23 19.292969 "
        fill-opacity="1" fill-rule="nonzero" />
    <g clip-path="url(#bcd419b4d8)">
        <path fill="#a28461"
            d="M 26.617188 17.777344 L 26.613281 17.828125 C 26.609375 17.847656 26.617188 17.875 26.636719 17.894531 L 26.636719 17.75 C 26.625 17.757812 26.621094 17.765625 26.617188 17.777344 "
            fill-opacity="1" fill-rule="nonzero" />
    </g>
    <path fill="#a28461"
        d="M 24.015625 23.207031 C 23.957031 23.207031 23.871094 23.222656 23.875 23.261719 C 23.878906 23.304688 23.980469 23.320312 24.027344 23.316406 C 24.15625 23.3125 24.296875 23.332031 24.429688 23.339844 C 24.417969 23.347656 24.410156 23.355469 24.40625 23.363281 C 24.394531 23.398438 24.402344 23.449219 24.449219 23.488281 C 24.535156 23.558594 24.621094 23.636719 24.757812 23.671875 C 24.820312 23.6875 24.824219 23.613281 24.824219 23.59375 C 24.820312 23.5625 24.800781 23.511719 24.734375 23.496094 C 24.640625 23.46875 24.566406 23.394531 24.511719 23.347656 L 24.503906 23.34375 C 24.535156 23.34375 24.570312 23.34375 24.601562 23.34375 C 24.660156 23.34375 24.742188 23.328125 24.738281 23.285156 C 24.734375 23.246094 24.636719 23.230469 24.589844 23.230469 C 24.402344 23.234375 24.199219 23.199219 24.015625 23.207031 "
        fill-opacity="1" fill-rule="nonzero" />
    <path fill="#a28461"
        d="M 24.976562 20.882812 C 24.984375 20.835938 24.703125 20.839844 24.695312 20.890625 C 24.6875 20.9375 24.972656 20.929688 24.976562 20.882812 "
        fill-opacity="1" fill-rule="nonzero" />
    <g clip-path="url(#e096cb79f3)">
        <path fill="#a28461"
            d="M 26.578125 19.480469 C 26.585938 19.433594 26.59375 19.386719 26.597656 19.339844 C 26.589844 19.339844 26.578125 19.339844 26.574219 19.339844 C 26.539062 19.34375 26.507812 19.347656 26.476562 19.355469 C 26.449219 19.359375 26.417969 19.367188 26.390625 19.375 L 26.359375 19.386719 C 26.4375 19.40625 26.457031 19.460938 26.539062 19.480469 C 26.550781 19.484375 26.566406 19.484375 26.578125 19.480469 "
            fill-opacity="1" fill-rule="nonzero" />
    </g>
    <path fill="#a28461"
        d="M 25.597656 24.058594 L 25.878906 24.121094 C 26.007812 24.152344 25.929688 23.96875 25.816406 23.945312 L 25.535156 23.878906 C 25.40625 23.851562 25.484375 24.03125 25.597656 24.058594 "
        fill-opacity="1" fill-rule="nonzero" />
    <path fill="#a28461"
        d="M 24.914062 14.144531 C 24.792969 14.335938 24.839844 14.5625 25.164062 14.773438 C 25.300781 14.863281 25.417969 14.726562 25.304688 14.65625 C 25.082031 14.511719 25.039062 14.378906 25.125 14.242188 C 25.175781 14.160156 24.972656 14.046875 24.914062 14.144531 "
        fill-opacity="1" fill-rule="nonzero" />
    <path fill="#a28461"
        d="M 25.628906 17.875 C 25.75 17.976562 25.851562 17.847656 25.765625 17.777344 C 25.691406 17.714844 25.632812 17.664062 25.640625 17.597656 C 25.640625 17.566406 25.609375 17.507812 25.535156 17.492188 C 25.460938 17.480469 25.441406 17.53125 25.441406 17.5625 C 25.429688 17.667969 25.503906 17.773438 25.628906 17.875 "
        fill-opacity="1" fill-rule="nonzero" />
    <path fill="#a28461"
        d="M 24.945312 25.207031 C 24.417969 24.933594 23.886719 24.65625 23.429688 24.339844 C 23.378906 24.304688 23.152344 24.363281 23.148438 24.359375 C 23.605469 24.675781 24.132812 24.953125 24.664062 25.226562 C 24.734375 25.265625 24.925781 25.195312 24.945312 25.207031 "
        fill-opacity="1" fill-rule="nonzero" />
    <g clip-path="url(#ad90eb7150)">
        <path fill="#a28461"
            d="M 26.082031 25.609375 C 26.109375 25.644531 26.136719 25.605469 26.144531 25.59375 C 26.160156 25.5625 26.175781 25.511719 26.152344 25.472656 C 26.058594 25.335938 25.902344 25.207031 25.703125 25.097656 C 25.6875 25.089844 25.59375 25.226562 25.671875 25.265625 C 25.847656 25.359375 26 25.484375 26.082031 25.609375 "
            fill-opacity="1" fill-rule="nonzero" />
    </g>
    <g clip-path="url(#1f82788465)">
        <path fill="#a28461"
            d="M 26.636719 16.921875 L 26.636719 16.890625 C 26.632812 16.902344 26.632812 16.914062 26.636719 16.921875 "
            fill-opacity="1" fill-rule="nonzero" />
    </g>
    <path fill="#a28461"
        d="M 25.320312 22.910156 C 25.363281 22.886719 25.371094 22.84375 25.375 22.804688 C 25.378906 22.765625 25.308594 22.746094 25.253906 22.75 C 25.191406 22.75 25.113281 22.769531 25.105469 22.808594 L 25.101562 22.832031 C 25.070312 22.835938 25.042969 22.847656 25.023438 22.859375 C 24.996094 22.878906 24.980469 22.925781 25.054688 22.941406 C 25.167969 22.964844 25.257812 22.949219 25.320312 22.910156 "
        fill-opacity="1" fill-rule="nonzero" />
    <g clip-path="url(#1bc792acf3)">
        <path fill="#a28461"
            d="M 26.3125 17.304688 L 26.109375 17.363281 C 26.097656 17.367188 26.074219 17.375 26.082031 17.386719 C 26.089844 17.402344 26.121094 17.40625 26.136719 17.410156 C 26.207031 17.421875 26.289062 17.421875 26.34375 17.40625 L 26.542969 17.347656 C 26.558594 17.34375 26.582031 17.335938 26.574219 17.324219 C 26.566406 17.308594 26.535156 17.304688 26.515625 17.300781 C 26.445312 17.289062 26.363281 17.289062 26.3125 17.304688 "
            fill-opacity="1" fill-rule="nonzero" />
    </g>
    <path fill="#a28461"
        d="M 25.347656 14.136719 C 25.328125 14.265625 25.664062 14.496094 25.691406 14.3125 C 25.707031 14.183594 25.375 13.957031 25.347656 14.136719 "
        fill-opacity="1" fill-rule="nonzero" />
    <path fill="#a28461"
        d="M 23.871094 16.628906 C 23.847656 16.792969 24.230469 16.6875 24.242188 16.582031 C 24.265625 16.421875 23.886719 16.527344 23.871094 16.628906 "
        fill-opacity="1" fill-rule="nonzero" />
    <g clip-path="url(#894bb513b4)">
        <path fill="#a28461"
            d="M 26.429688 16.800781 C 26.421875 16.863281 26.53125 16.867188 26.636719 16.84375 L 26.636719 16.6875 C 26.539062 16.707031 26.4375 16.753906 26.429688 16.800781 "
            fill-opacity="1" fill-rule="nonzero" />
    </g>
    <g clip-path="url(#635de55e50)">
        <path fill="#a28461"
            d="M 25.792969 17.714844 C 25.773438 17.875 26.15625 18.027344 26.183594 17.84375 C 26.207031 17.683594 25.820312 17.53125 25.792969 17.714844 "
            fill-opacity="1" fill-rule="nonzero" />
    </g>
    <g clip-path="url(#09ee1b116a)">
        <path fill="#a28461"
            d="M 26.3125 18.335938 C 26.25 18.285156 26.1875 18.257812 26.09375 18.238281 C 25.929688 18.199219 25.789062 18.441406 25.882812 18.464844 C 25.949219 18.480469 26.019531 18.496094 26.066406 18.535156 C 26.132812 18.585938 26.21875 18.523438 26.246094 18.5 C 26.277344 18.476562 26.304688 18.445312 26.316406 18.410156 C 26.324219 18.394531 26.339844 18.355469 26.3125 18.335938 "
            fill-opacity="1" fill-rule="nonzero" />
    </g>
    <path fill="#a28461"
        d="M 24.585938 24.621094 C 24.589844 24.601562 24.25 24.679688 24.238281 24.757812 C 24.234375 24.777344 24.574219 24.699219 24.585938 24.621094 "
        fill-opacity="1" fill-rule="nonzero" />
    <path fill="#a28461"
        d="M 24.714844 24.273438 C 24.808594 24.308594 24.878906 24.285156 24.914062 24.246094 C 25.039062 24.265625 25.089844 24.183594 25.085938 24.128906 C 25.082031 24.066406 25.019531 23.976562 24.894531 23.953125 C 24.71875 23.917969 24.59375 23.988281 24.570312 24.074219 C 24.554688 24.132812 24.589844 24.226562 24.714844 24.273438 "
        fill-opacity="1" fill-rule="nonzero" />
    <g clip-path="url(#962e8039bd)">
        <path fill="#a28461"
            d="M 26.074219 24.75 C 26.082031 24.734375 26.117188 24.617188 26.019531 24.621094 C 25.910156 24.625 25.816406 24.613281 25.699219 24.585938 C 25.535156 24.550781 25.417969 24.800781 25.523438 24.824219 C 25.660156 24.855469 25.777344 24.875 25.902344 24.871094 C 26 24.867188 26.050781 24.796875 26.074219 24.75 "
            fill-opacity="1" fill-rule="nonzero" />
    </g>
    <g clip-path="url(#dc09155840)">
        <path fill="#a28461"
            d="M 25.71875 14.960938 C 25.730469 14.96875 25.738281 14.976562 25.746094 14.980469 C 25.78125 15.011719 25.8125 15.039062 25.847656 15.066406 C 25.933594 15.136719 26.082031 15.128906 26.152344 15.09375 C 26.167969 15.085938 26.183594 15.074219 26.195312 15.0625 C 26.207031 15.050781 26.214844 15.039062 26.21875 15.027344 L 25.675781 14.902344 C 25.683594 14.921875 25.695312 14.941406 25.71875 14.960938 "
            fill-opacity="1" fill-rule="nonzero" />
    </g>
    <path fill="#a28461"
        d="M 25.445312 16.390625 L 25.167969 16.328125 C 25.148438 16.320312 25.128906 16.351562 25.125 16.355469 C 25.101562 16.382812 25.085938 16.414062 25.070312 16.445312 C 25.066406 16.453125 25.011719 16.578125 25.054688 16.585938 L 25.328125 16.648438 C 25.351562 16.652344 25.371094 16.625 25.375 16.621094 C 25.398438 16.59375 25.414062 16.5625 25.429688 16.53125 C 25.433594 16.523438 25.488281 16.398438 25.445312 16.390625 "
        fill-opacity="1" fill-rule="nonzero" />
    <path fill="#a28461"
        d="M 24.746094 18.289062 C 24.6875 18.339844 24.730469 18.433594 24.808594 18.496094 C 24.851562 18.535156 24.894531 18.570312 24.9375 18.605469 C 25 18.660156 25.125 18.707031 25.1875 18.65625 C 25.246094 18.605469 25.199219 18.511719 25.121094 18.445312 C 25.082031 18.410156 25.039062 18.375 24.996094 18.339844 C 24.929688 18.285156 24.804688 18.238281 24.746094 18.289062 "
        fill-opacity="1" fill-rule="nonzero" />
    <path fill="#a28461"
        d="M 25.503906 20.164062 C 25.523438 20.03125 25.273438 19.867188 25.246094 20.054688 C 25.226562 20.1875 25.476562 20.351562 25.503906 20.164062 "
        fill-opacity="1" fill-rule="nonzero" />
    <g clip-path="url(#b4e5437636)">
        <path fill="#a28461"
            d="M 25.957031 20.390625 C 25.953125 20.390625 25.753906 20.425781 25.820312 20.441406 L 26.261719 20.539062 C 26.277344 20.507812 26.3125 20.480469 26.371094 20.496094 L 26.636719 20.554688 L 26.636719 20.476562 L 26.265625 20.394531 C 26.160156 20.371094 26.046875 20.378906 25.957031 20.390625 "
            fill-opacity="1" fill-rule="nonzero" />
    </g>
    <g clip-path="url(#3bc135a169)">
        <path fill="#a28461"
            d="M 26.261719 20.539062 C 26.246094 20.566406 26.242188 20.601562 26.242188 20.617188 C 26.246094 20.664062 26.273438 20.761719 26.382812 20.785156 L 26.636719 20.84375 L 26.636719 20.554688 L 26.371094 20.496094 C 26.3125 20.480469 26.277344 20.507812 26.261719 20.539062 "
            fill-opacity="1" fill-rule="nonzero" />
    </g>
    <path fill="#a28461"
        d="M 25.007812 26.128906 C 25.019531 26.0625 24.894531 26.023438 24.800781 26.023438 C 24.546875 26.011719 24.320312 26.039062 24.09375 26.070312 C 24 26.082031 23.875 26.117188 23.90625 26.191406 C 23.933594 26.261719 24.089844 26.28125 24.167969 26.269531 C 24.359375 26.246094 24.546875 26.21875 24.757812 26.226562 C 24.871094 26.230469 24.992188 26.195312 25.007812 26.128906 "
        fill-opacity="1" fill-rule="nonzero" />
    <path fill="#a28461"
        d="M 25.5 27.140625 C 25.585938 27.160156 25.71875 27.125 25.78125 27.109375 C 25.792969 27.105469 25.960938 27.0625 25.898438 27.046875 C 25.6875 26.996094 25.492188 26.917969 25.28125 26.867188 C 25.195312 26.847656 25.0625 26.882812 25 26.898438 C 24.988281 26.902344 24.820312 26.945312 24.882812 26.960938 C 25.09375 27.011719 25.289062 27.089844 25.5 27.140625 "
        fill-opacity="1" fill-rule="nonzero" />
    <path fill="#a28461"
        d="M 23.535156 15.253906 C 23.519531 15.367188 23.894531 15.253906 23.90625 15.167969 C 23.921875 15.054688 23.546875 15.171875 23.535156 15.253906 "
        fill-opacity="1" fill-rule="nonzero" />
    <path fill="#a28461"
        d="M 24.328125 13.78125 C 24.339844 13.691406 23.886719 13.722656 23.871094 13.816406 C 23.859375 13.910156 24.3125 13.875 24.328125 13.78125 "
        fill-opacity="1" fill-rule="nonzero" />
    <path fill="#a28461"
        d="M 25.800781 19.199219 C 25.789062 19.300781 25.894531 19.492188 25.921875 19.296875 C 25.9375 19.195312 25.828125 19.003906 25.800781 19.199219 "
        fill-opacity="1" fill-rule="nonzero" />
    <path fill="#a28461"
        d="M 24.234375 26.523438 C 24.257812 26.355469 23.832031 26.199219 23.804688 26.382812 C 23.78125 26.550781 24.210938 26.707031 24.234375 26.523438 "
        fill-opacity="1" fill-rule="nonzero" />
    <path fill="#a28461"
        d="M 25.5625 26.785156 C 25.578125 26.664062 25.085938 26.660156 25.070312 26.765625 C 25.054688 26.882812 25.546875 26.890625 25.5625 26.785156 "
        fill-opacity="1" fill-rule="nonzero" />
    <g clip-path="url(#5a09da0ab1)">
        <path fill="#a28461"
            d="M 26.636719 25.726562 L 26.636719 25.546875 C 26.5625 25.574219 26.574219 25.671875 26.636719 25.726562 "
            fill-opacity="1" fill-rule="nonzero" />
    </g>
    <g clip-path="url(#3ebf05ed44)">
        <path fill="#a28461"
            d="M 26.636719 26.132812 C 26.613281 26.128906 26.585938 26.125 26.5625 26.121094 C 26.460938 26.101562 26.441406 26.179688 26.449219 26.222656 C 26.464844 26.339844 26.535156 26.457031 26.636719 26.566406 L 26.636719 26.132812 "
            fill-opacity="1" fill-rule="nonzero" />
    </g>
    <g clip-path="url(#e5bbb7e2eb)">
        <path fill="#a28461"
            d="M 26.636719 22.15625 L 26.636719 21.929688 C 26.359375 21.835938 26.078125 21.753906 25.792969 21.679688 C 25.664062 21.644531 25.628906 21.726562 25.652344 21.792969 L 25.65625 21.804688 C 25.691406 21.867188 25.734375 21.925781 25.785156 21.984375 C 25.800781 21.996094 25.8125 22.011719 25.824219 22.023438 C 25.796875 22.027344 25.773438 22.035156 25.757812 22.046875 C 25.714844 22.078125 25.714844 22.125 25.769531 22.171875 C 25.835938 22.230469 25.933594 22.28125 26.03125 22.3125 C 26.144531 22.367188 26.269531 22.402344 26.382812 22.453125 C 26.386719 22.453125 26.394531 22.445312 26.402344 22.433594 C 26.476562 22.472656 26.554688 22.511719 26.636719 22.550781 L 26.636719 22.308594 C 26.511719 22.246094 26.386719 22.179688 26.273438 22.109375 C 26.28125 22.09375 26.289062 22.066406 26.292969 22.046875 C 26.40625 22.082031 26.523438 22.117188 26.636719 22.15625 "
            fill-opacity="1" fill-rule="nonzero" />
    </g>
    <g clip-path="url(#e18d319c06)">
        <path fill="#a28461"
            d="M 26.234375 21.332031 L 26.253906 21.347656 C 26.382812 21.449219 26.507812 21.550781 26.636719 21.652344 L 26.636719 21.390625 L 25.984375 21.242188 C 26.066406 21.273438 26.152344 21.300781 26.234375 21.332031 "
            fill-opacity="1" fill-rule="nonzero" />
    </g>
    <g clip-path="url(#75937444c0)">
        <path fill="#a28461"
            d="M 26.597656 22.703125 C 26.609375 22.726562 26.621094 22.75 26.636719 22.769531 L 26.636719 22.585938 C 26.578125 22.609375 26.578125 22.660156 26.597656 22.703125 "
            fill-opacity="1" fill-rule="nonzero" />
    </g>
    <g clip-path="url(#c994183129)">
        <path fill="#a28461"
            d="M 26.601562 24.453125 C 26.613281 24.445312 26.621094 24.441406 26.621094 24.433594 L 26.636719 24.445312 L 26.636719 24.152344 C 26.5625 24.128906 26.492188 24.105469 26.421875 24.082031 C 26.28125 24.042969 26.304688 24.164062 26.355469 24.210938 C 26.429688 24.28125 26.515625 24.351562 26.609375 24.421875 C 26.589844 24.417969 26.554688 24.421875 26.535156 24.429688 C 26.425781 24.472656 26.28125 24.460938 26.128906 24.429688 C 26.085938 24.417969 26.003906 24.460938 26.039062 24.46875 C 26.261719 24.519531 26.449219 24.515625 26.601562 24.453125 "
            fill-opacity="1" fill-rule="nonzero" />
    </g>
    <path fill="#a28461"
        d="M 25.597656 25.988281 C 25.625 25.800781 25.273438 25.8125 25.25 25.960938 C 25.226562 26.148438 25.578125 26.136719 25.597656 25.988281 "
        fill-opacity="1" fill-rule="nonzero" />
    <path fill="#a28461"
        d="M 11.085938 0.015625 L 4.359375 8.234375 L 11.085938 8.234375 L 11.085938 0.015625 "
        fill-opacity="1" fill-rule="nonzero" />
    <path fill="#a28461"
        d="M 14.375 15.484375 C 13.808594 15.542969 13.234375 15.585938 12.664062 15.609375 C 12.300781 15.625 11.996094 15.597656 11.644531 15.453125 C 11.332031 15.320312 11.039062 15.121094 10.757812 14.933594 C 10.800781 14.964844 10.371094 16.445312 11.980469 17.953125 L 14.375 17.953125 L 14.375 15.484375 "
        fill-opacity="1" fill-rule="nonzero" />
    <path fill="#a28461"
        d="M 12.59375 12.007812 C 12.496094 12.015625 10.527344 12.695312 10.371094 12.761719 C 10.558594 12.910156 10.761719 13.035156 10.945312 13.199219 C 10.992188 13.242188 11.109375 13.292969 11.109375 13.363281 C 11.109375 13.390625 10.703125 13.828125 10.589844 14.4375 C 10.683594 14.632812 11.664062 15.339844 12.160156 15.386719 C 12.15625 15.382812 12.246094 14.851562 12.257812 14.800781 C 12.296875 14.59375 12.355469 14.386719 12.429688 14.1875 C 12.488281 14.039062 12.578125 13.871094 12.703125 13.765625 C 12.769531 13.707031 12.8125 13.695312 12.894531 13.734375 C 13 13.785156 13.445312 14.035156 13.542969 13.992188 C 13.554688 13.910156 12.695312 12.160156 12.59375 12.007812 "
        fill-opacity="1" fill-rule="nonzero" />
    <path fill="#a28461"
        d="M 17.972656 13.4375 C 18.210938 13.957031 18.441406 14.496094 18.648438 15.03125 C 18.785156 15.375 18.867188 15.671875 18.863281 16.050781 C 18.863281 16.390625 18.796875 16.726562 18.738281 17.050781 C 18.75 17 20.105469 16.972656 20.800781 14.988281 L 19.996094 12.703125 L 17.972656 13.4375 "
        fill-opacity="1" fill-rule="nonzero" />
    <path fill="#a28461"
        d="M 15.726562 16.164062 C 15.765625 16.257812 16.984375 17.933594 17.089844 18.066406 C 17.148438 17.839844 17.183594 17.609375 17.257812 17.382812 C 17.273438 17.328125 17.277344 17.203125 17.332031 17.183594 C 17.359375 17.171875 17.851562 17.433594 18.390625 17.359375 C 18.515625 17.214844 18.769531 16.066406 18.636719 15.578125 C 18.636719 15.585938 18.171875 15.65625 18.128906 15.660156 C 17.941406 15.683594 17.753906 15.6875 17.566406 15.675781 C 17.421875 15.667969 17.253906 15.628906 17.128906 15.542969 C 17.058594 15.496094 17.03125 15.457031 17.039062 15.371094 C 17.042969 15.25 17.097656 14.753906 17.03125 14.671875 C 16.960938 14.683594 15.816406 16.023438 15.726562 16.164062 "
        fill-opacity="1" fill-rule="nonzero" />
    <path fill="#a28461"
        d="M 14.097656 11.46875 C 14.457031 11.023438 14.832031 10.578125 15.21875 10.15625 C 15.46875 9.882812 15.699219 9.683594 16.050781 9.535156 C 16.367188 9.40625 16.710938 9.335938 17.039062 9.265625 C 16.988281 9.277344 16.257812 7.921875 14.066406 8.007812 L 12.375 9.722656 L 14.097656 11.46875 "
        fill-opacity="1" fill-rule="nonzero" />
    <path fill="#a28461"
        d="M 17.78125 12.652344 C 17.847656 12.574219 18.765625 10.683594 18.828125 10.523438 C 18.59375 10.554688 18.363281 10.609375 18.113281 10.628906 C 18.054688 10.632812 17.9375 10.675781 17.886719 10.628906 C 17.867188 10.609375 17.851562 10.011719 17.503906 9.496094 C 17.304688 9.425781 16.117188 9.625 15.730469 9.953125 C 15.738281 9.949219 16.042969 10.390625 16.070312 10.433594 C 16.1875 10.609375 16.289062 10.796875 16.375 10.992188 C 16.441406 11.140625 16.492188 11.324219 16.480469 11.484375 C 16.472656 11.574219 16.449219 11.617188 16.367188 11.644531 C 16.253906 11.6875 15.769531 11.828125 15.726562 11.925781 C 15.773438 11.992188 17.605469 12.613281 17.78125 12.652344 "
        fill-opacity="1" fill-rule="nonzero" />
    <path fill="#483320"
        d="M 3.226562 2.394531 L 3.226562 28.769531 L 23.722656 28.769531 L 23.722656 28.480469 L 3.511719 28.480469 L 3.511719 2.394531 L 3.226562 2.394531 "
        fill-opacity="1" fill-rule="nonzero" />
    <path fill="#483320"
        d="M 4.058594 9.132812 L 4.058594 27.960938 L 24.554688 27.960938 L 24.554688 27.671875 L 4.34375 27.671875 L 4.34375 9.132812 L 4.058594 9.132812 "
        fill-opacity="1" fill-rule="nonzero" />
</svg>