<svg xmlns="http://www.w3.org/2000/svg" xmlns:xlink="http://www.w3.org/1999/xlink" width="40" zoomAndPan="magnify" viewBox="0 0 30 30.000001" height="40" preserveAspectRatio="xMidYMid meet" version="1.0"><defs><clipPath id="d6288c4d45"><path d="M 7 2.613281 L 23 2.613281 L 23 25 L 7 25 Z M 7 2.613281 " clip-rule="nonzero"/></clipPath><clipPath id="36e083f932"><path d="M 8.960938 4.5 L 21.039062 4.5 L 21.039062 16.578125 L 8.960938 16.578125 Z M 8.960938 4.5 " clip-rule="nonzero"/></clipPath><clipPath id="2067a6182d"><path d="M 15 4.5 C 11.664062 4.5 8.960938 7.203125 8.960938 10.539062 C 8.960938 13.875 11.664062 16.578125 15 16.578125 C 18.335938 16.578125 21.039062 13.875 21.039062 10.539062 C 21.039062 7.203125 18.335938 4.5 15 4.5 Z M 15 4.5 " clip-rule="nonzero"/></clipPath><clipPath id="782d891766"><path d="M 10.65625 6.324219 L 15.511719 6.324219 L 15.511719 12.644531 L 10.65625 12.644531 Z M 10.65625 6.324219 " clip-rule="nonzero"/></clipPath><clipPath id="c2f2aec9c4"><path d="M 15.195312 12.488281 C 14.410156 11.292969 13.917969 11.53125 13.476562 11.625 C 12.921875 11.742188 12.136719 12.046875 11.644531 12.136719 C 11.3125 12.195312 10.941406 12.246094 10.800781 12.195312 C 10.738281 12.175781 10.699219 12.144531 10.6875 12.097656 C 10.667969 12.027344 10.738281 11.914062 10.820312 11.785156 C 10.980469 11.503906 11.484375 11.03125 11.777344 10.597656 C 12.078125 10.152344 12.460938 9.621094 12.589844 9.148438 C 12.703125 8.746094 12.652344 8.375 12.601562 7.960938 C 12.550781 7.496094 12.21875 6.722656 12.257812 6.492188 C 12.269531 6.410156 12.320312 6.351562 12.359375 6.339844 C 12.398438 6.332031 12.511719 6.410156 12.511719 6.453125 C 12.511719 6.492188 12.359375 6.582031 12.320312 6.570312 C 12.289062 6.5625 12.25 6.472656 12.257812 6.429688 C 12.269531 6.390625 12.308594 6.351562 12.347656 6.339844 C 12.390625 6.332031 12.449219 6.351562 12.5 6.402344 C 12.621094 6.542969 12.710938 7.144531 12.78125 7.519531 C 12.851562 7.890625 12.933594 8.351562 12.941406 8.644531 C 12.953125 8.835938 12.972656 8.917969 12.902344 9.117188 C 12.75 9.601562 11.976562 10.796875 11.574219 11.351562 C 11.3125 11.714844 11 12.175781 10.839844 12.195312 C 10.78125 12.207031 10.699219 12.144531 10.6875 12.097656 C 10.679688 12.035156 10.75 11.925781 10.839844 11.875 C 11 11.785156 11.375 11.875 11.695312 11.8125 C 12.148438 11.734375 12.761719 11.460938 13.285156 11.351562 C 13.777344 11.242188 14.410156 11.058594 14.734375 11.140625 C 14.914062 11.191406 15.015625 11.300781 15.125 11.441406 C 15.265625 11.625 15.378906 11.996094 15.429688 12.207031 C 15.457031 12.347656 15.5 12.5 15.457031 12.558594 C 15.429688 12.597656 15.328125 12.621094 15.289062 12.597656 C 15.246094 12.589844 15.195312 12.488281 15.195312 12.488281 " clip-rule="nonzero"/></clipPath><clipPath id="7f394db238"><path d="M 13 5 L 21 5 L 21 11 L 13 11 Z M 13 5 " clip-rule="nonzero"/></clipPath><clipPath id="2ac848dea3"><path d="M 21.003906 9.179688 L 18.25 13.179688 L 13.046875 9.597656 L 15.796875 5.597656 Z M 21.003906 9.179688 " clip-rule="nonzero"/></clipPath><clipPath id="bf41b9ed33"><path d="M 13.351562 9.425781 C 14.785156 9.460938 14.863281 8.917969 15.039062 8.5 C 15.253906 7.976562 15.449219 7.15625 15.65625 6.699219 C 15.792969 6.394531 15.964844 6.058594 16.085938 5.96875 C 16.136719 5.929688 16.183594 5.914062 16.230469 5.9375 C 16.300781 5.960938 16.351562 6.078125 16.414062 6.21875 C 16.554688 6.511719 16.660156 7.195312 16.851562 7.679688 C 17.042969 8.179688 17.265625 8.796875 17.582031 9.171875 C 17.851562 9.492188 18.183594 9.664062 18.554688 9.855469 C 18.964844 10.074219 19.789062 10.242188 19.957031 10.40625 C 20.019531 10.460938 20.039062 10.535156 20.023438 10.574219 C 20.011719 10.613281 19.882812 10.660156 19.847656 10.636719 C 19.816406 10.613281 19.828125 10.4375 19.859375 10.410156 C 19.882812 10.390625 19.980469 10.410156 20.007812 10.441406 C 20.035156 10.472656 20.046875 10.527344 20.03125 10.566406 C 20.015625 10.605469 19.964844 10.644531 19.894531 10.65625 C 19.710938 10.675781 19.164062 10.40625 18.816406 10.253906 C 18.46875 10.101562 18.042969 9.90625 17.796875 9.75 C 17.632812 9.648438 17.554688 9.621094 17.429688 9.449219 C 17.117188 9.050781 16.570312 7.734375 16.34375 7.085938 C 16.191406 6.667969 15.988281 6.148438 16.0625 6.003906 C 16.089844 5.949219 16.183594 5.914062 16.230469 5.9375 C 16.285156 5.960938 16.335938 6.082031 16.328125 6.1875 C 16.3125 6.371094 16.023438 6.625 15.890625 6.925781 C 15.703125 7.34375 15.578125 8.003906 15.371094 8.496094 C 15.183594 8.964844 14.972656 9.589844 14.726562 9.808594 C 14.582031 9.929688 14.433594 9.949219 14.253906 9.960938 C 14.023438 9.976562 13.65625 9.855469 13.453125 9.777344 C 13.320312 9.722656 13.171875 9.667969 13.144531 9.601562 C 13.128906 9.554688 13.171875 9.460938 13.210938 9.4375 C 13.242188 9.410156 13.351562 9.425781 13.351562 9.425781 " clip-rule="nonzero"/></clipPath><clipPath id="479c61ded2"><path d="M 11 9 L 18 9 L 18 15 L 11 15 Z M 11 9 " clip-rule="nonzero"/></clipPath><clipPath id="b769602527"><path d="M 12.058594 15.566406 L 11.371094 10.757812 L 17.628906 9.863281 L 18.3125 14.671875 Z M 12.058594 15.566406 " clip-rule="nonzero"/></clipPath><clipPath id="16b9881f0a"><path d="M 17.519531 10.199219 C 16.445312 11.144531 16.753906 11.597656 16.90625 12.023438 C 17.101562 12.554688 17.511719 13.289062 17.671875 13.765625 C 17.777344 14.085938 17.878906 14.445312 17.851562 14.59375 C 17.839844 14.65625 17.816406 14.699219 17.765625 14.71875 C 17.699219 14.746094 17.582031 14.691406 17.441406 14.632812 C 17.136719 14.511719 16.597656 14.082031 16.128906 13.851562 C 15.648438 13.617188 15.066406 13.3125 14.578125 13.25 C 14.164062 13.199219 13.804688 13.300781 13.402344 13.410156 C 12.953125 13.523438 12.230469 13.960938 11.996094 13.953125 C 11.914062 13.957031 11.847656 13.914062 11.832031 13.875 C 11.816406 13.839844 11.882812 13.71875 11.921875 13.710938 C 11.960938 13.707031 12.074219 13.84375 12.066406 13.882812 C 12.0625 13.914062 11.976562 13.96875 11.9375 13.964844 C 11.894531 13.960938 11.851562 13.925781 11.835938 13.886719 C 11.820312 13.847656 11.832031 13.785156 11.875 13.730469 C 11.996094 13.589844 12.582031 13.414062 12.9375 13.292969 C 13.296875 13.167969 13.746094 13.023438 14.03125 12.972656 C 14.21875 12.9375 14.296875 12.90625 14.503906 12.945312 C 15.003906 13.027344 16.300781 13.625 16.90625 13.945312 C 17.300781 14.152344 17.800781 14.398438 17.84375 14.554688 C 17.863281 14.613281 17.816406 14.699219 17.765625 14.71875 C 17.707031 14.734375 17.589844 14.683594 17.527344 14.597656 C 17.414062 14.453125 17.449219 14.070312 17.347656 13.761719 C 17.203125 13.324219 16.847656 12.753906 16.664062 12.253906 C 16.484375 11.78125 16.214844 11.179688 16.25 10.847656 C 16.273438 10.660156 16.367188 10.546875 16.492188 10.417969 C 16.652344 10.25 17.003906 10.089844 17.207031 10.011719 C 17.34375 9.960938 17.484375 9.898438 17.550781 9.929688 C 17.59375 9.953125 17.628906 10.050781 17.617188 10.09375 C 17.609375 10.136719 17.519531 10.199219 17.519531 10.199219 " clip-rule="nonzero"/></clipPath></defs><g clip-path="url(#d6288c4d45)"><path fill="#0074b7" d="M 15.253906 24.820312 L 14.3125 23.582031 C 13.621094 22.671875 7.566406 14.59375 7.566406 10.566406 C 7.566406 5.734375 10.582031 2.613281 15.253906 2.613281 C 19.925781 2.613281 22.941406 5.734375 22.941406 10.566406 C 22.941406 14.589844 16.882812 22.671875 16.199219 23.582031 Z M 15.253906 24.820312 " fill-opacity="1" fill-rule="nonzero"/></g><path fill="#ffffff" d="M 17.738281 10.617188 C 17.738281 10.949219 17.675781 11.265625 17.546875 11.570312 C 17.421875 11.875 17.242188 12.144531 17.007812 12.378906 C 16.773438 12.613281 16.503906 12.792969 16.199219 12.917969 C 15.894531 13.042969 15.578125 13.109375 15.246094 13.109375 C 14.917969 13.109375 14.601562 13.042969 14.296875 12.917969 C 13.992188 12.792969 13.722656 12.613281 13.488281 12.378906 C 13.253906 12.144531 13.074219 11.875 12.949219 11.570312 C 12.820312 11.265625 12.757812 10.949219 12.757812 10.617188 C 12.757812 10.289062 12.820312 9.972656 12.949219 9.667969 C 13.074219 9.363281 13.253906 9.09375 13.488281 8.859375 C 13.722656 8.625 13.992188 8.445312 14.296875 8.320312 C 14.601562 8.191406 14.917969 8.128906 15.246094 8.128906 C 15.578125 8.128906 15.894531 8.191406 16.199219 8.320312 C 16.503906 8.445312 16.773438 8.625 17.007812 8.859375 C 17.242188 9.09375 17.421875 9.363281 17.546875 9.667969 C 17.675781 9.972656 17.738281 10.289062 17.738281 10.617188 Z M 17.738281 10.617188 " fill-opacity="1" fill-rule="nonzero"/><g clip-path="url(#36e083f932)"><g clip-path="url(#2067a6182d)"><path fill="#0074b7" d="M 8.960938 4.5 L 21.039062 4.5 L 21.039062 16.578125 L 8.960938 16.578125 Z M 8.960938 4.5 " fill-opacity="1" fill-rule="nonzero"/></g></g><g clip-path="url(#782d891766)"><g clip-path="url(#c2f2aec9c4)"><path fill="#ffffff" d="M 10.285156 5.9375 L 15.859375 5.9375 L 15.859375 13 L 10.285156 13 Z M 10.285156 5.9375 " fill-opacity="1" fill-rule="nonzero"/></g></g><g clip-path="url(#7f394db238)"><g clip-path="url(#2ac848dea3)"><g clip-path="url(#bf41b9ed33)"><path fill="#ffffff" d="M 21.53125 9.09375 L 18.371094 13.6875 L 12.554688 9.683594 L 15.710938 5.089844 Z M 21.53125 9.09375 " fill-opacity="1" fill-rule="nonzero"/></g></g></g><g clip-path="url(#479c61ded2)"><g clip-path="url(#b769602527)"><g clip-path="url(#16b9881f0a)"><path fill="#ffffff" d="M 11.726562 15.984375 L 10.941406 10.46875 L 17.933594 9.46875 L 18.71875 14.988281 Z M 11.726562 15.984375 " fill-opacity="1" fill-rule="nonzero"/></g></g></g></svg>